<svg xmlns="http://www.w3.org/2000/svg" width="167.79mm" height="167.79mm" viewBox="0 0 475.62 475.62">
  <defs>
    <style>
      .a, .b, .e, .g {
        fill: #fff;
      }

      .a {
        opacity: 0.33;
      }

      .c {
        fill: none;
      }

      .c, .g {
        stroke: #d0102b;
      }

      .c, .e, .g {
        stroke-linecap: round;
        stroke-linejoin: round;
        stroke-width: 1.35px;
      }

      .d {
        fill: #d0102b;
      }

      .d, .f {
        opacity: 0.3;
        isolation: isolate;
      }

      .e {
        stroke: #c2192b;
      }

      .f {
        fill: #c2192b;
      }
    </style>
  </defs>
  <title>icones-business-circulo</title>
  <g>
    <circle class="a" cx="237.81" cy="237.81" r="237.81"/>
    <circle class="a" cx="237.81" cy="237.81" r="197.57"/>
    <circle class="b" cx="237.81" cy="237.81" r="159.31"/>
    <g>
      <g>
        <g>
          <polyline class="c" points="236.81 164.14 240.53 147.63 328.91 168.89 302.1 287.67 282.2 282.87"/>
          <path class="c" d="M247.9,235.24c21.54,17.19,34.3,47.63,34.3,47.63l-28-6.71"/>
          <path class="d" d="M282.2,282.87a152.48,152.48,0,0,0-10.41-19.54s13.2-10.21,37.53-7.6l-7.22,32Z"/>
          <path class="c" d="M282.2,282.87a152.48,152.48,0,0,0-10.41-19.54s13.2-10.21,37.53-7.6l-7.22,32Z"/>
          <path class="d" d="M306.77,194.15a12,12,0,0,1-14.37,9.23,12.38,12.38,0,0,1-8.94-14.84,12,12,0,0,1,14.37-9.23A12.38,12.38,0,0,1,306.77,194.15Z"/>
          <path class="c" d="M306.77,194.15a12,12,0,0,1-14.37,9.23,12.38,12.38,0,0,1-8.94-14.84,12,12,0,0,1,14.37-9.23A12.38,12.38,0,0,1,306.77,194.15Z"/>
        </g>
        <polygon class="c" points="255.55 284.92 161.6 300.48 142.72 178.94 236.67 163.38 255.55 284.92"/>
        <g>
          <g>
            <path class="c" d="M191.19,209c-1,2.2-1.76,5.88-1.07,10.93l10.29,59.82c0.28,2,1.57,3.51,2.87,3.33L204,283c1.3-.18,2.15-2,1.87-4l-6.18-60.38c-0.69-5-2.41-8.39-4-10.24Z"/>
            <path class="d" d="M186.63,201.76c0.58,4.27,3.65,7.38,6.84,6.94s6.54-4.61,4.72-8.52a29,29,0,0,1-2.77-13S186,197.49,186.63,201.76Z"/>
            <path class="c" d="M186.63,201.76c0.58,4.27,3.65,7.38,6.84,6.94s6.54-4.61,4.72-8.52a29,29,0,0,1-2.77-13S186,197.49,186.63,201.76Z"/>
          </g>
          <polygon class="d" points="200.6 226.56 191.53 227.8 190.59 222.36 200.04 221.06 200.6 226.56"/>
          <polygon class="c" points="200.54 226.51 191.46 227.75 190.53 222.31 199.98 221.01 200.54 226.51"/>
        </g>
      </g>
      <g>
        <path class="e" d="M267.76,294.1V304a11.68,11.68,0,0,1-11.68,11.68H217.71A11.68,11.68,0,0,1,206,304V219a11.68,11.68,0,0,1,11.68-11.68h38.36A11.68,11.68,0,0,1,267.76,219V294.1Z"/>
        <path class="c" d="M206,219.15V219a11.68,11.68,0,0,1,11.68-11.68h38.36A11.68,11.68,0,0,1,267.76,219v0.18H206Z"/>
        <path class="f" d="M205.86,219.15V219a11.68,11.68,0,0,1,11.68-11.68H255.9A11.68,11.68,0,0,1,267.59,219v0.18H205.86Z"/>
        <path class="c" d="M267.76,303.82V304a11.68,11.68,0,0,1-11.68,11.68H217.71A11.68,11.68,0,0,1,206,304v-0.18h61.73Z"/>
        <path class="f" d="M267.76,303.82V304a11.68,11.68,0,0,1-11.68,11.68H217.71A11.68,11.68,0,0,1,206,304v-0.18h61.73Z"/>
        <line class="c" x1="231.42" y1="310.39" x2="242.37" y2="310.39"/>
        <line class="c" x1="231.42" y1="213.22" x2="242.37" y2="213.22"/>
        <g>
          <g>
            <path class="g" d="M231.14,259.9c-1,2.2-1.76,5.88-1.07,10.93l10.29,59.82c0.28,2,1.57,3.51,2.87,3.33l0.76-.1c1.3-.18,2.15-2,1.87-4l-6.18-60.38c-0.69-5-2.41-8.39-4-10.24Z"/>
            <path class="d" d="M226.59,252.65c0.58,4.27,3.65,7.38,6.84,6.94s6.54-4.61,4.72-8.52a29,29,0,0,1-2.77-13S226,248.38,226.59,252.65Z"/>
            <path class="c" d="M226.59,252.65c0.58,4.27,3.65,7.38,6.84,6.94s6.54-4.61,4.72-8.52a29,29,0,0,1-2.77-13S226,248.38,226.59,252.65Z"/>
          </g>
          <polygon class="d" points="240.55 277.45 231.48 278.69 230.54 273.25 239.99 271.95 240.55 277.45"/>
          <polygon class="c" points="240.49 277.4 231.42 278.64 230.48 273.2 239.93 271.9 240.49 277.4"/>
        </g>
      </g>
    </g>
  </g>
</svg>
