<svg xmlns="http://www.w3.org/2000/svg" width="167.79mm" height="167.79mm" viewBox="0 0 475.62 475.62">
  <defs>
    <style>
      .a, .b, .e {
        fill: #fff;
      }

      .a {
        opacity: 0.33;
      }

      .c {
        fill: none;
      }

      .c, .e {
        stroke: #389dca;
        stroke-linecap: round;
        stroke-linejoin: round;
        stroke-width: 1.5px;
      }

      .d {
        fill: #389dca;
        opacity: 0.3;
        isolation: isolate;
      }
    </style>
  </defs>
  <title>icones-business-circulo</title>
  <g>
    <circle class="a" cx="237.81" cy="237.81" r="237.81"/>
    <circle class="a" cx="237.81" cy="237.81" r="197.57"/>
    <circle class="b" cx="237.81" cy="237.81" r="159.31"/>
    <g>
      <g>
        <path class="c" d="M312.82,216.13v46a15.22,15.22,0,0,1-15.18,15.18H202a15.22,15.22,0,0,1-15.18-15.18V187.54"/>
        <line class="c" x1="312.82" y1="187.54" x2="312.82" y2="202.48"/>
        <path class="d" d="M316.94,173.53H266.49c-0.06-1.27-2-5.08-4.37-5.08H236.81c-2.37,0-4.3,3.81-4.37,5.08H182c-3.2,0-6.2,1.27-6.2,4.38v1.57c0,3.11,3,6.74,6.2,6.74H316.94c3.2,0,4.81-3.63,4.81-6.74v-1.57C321.75,174.8,320.14,173.53,316.94,173.53Zm-57.35,5.08H239.76c-1.61,0-2.93-.93-2.93-2.54s1.32-2.54,2.93-2.54h19.83c1.61,0,2.93.93,2.93,2.54S261.2,178.6,259.59,178.6Z"/>
        <path class="c" d="M316.94,172.89H266.49c-0.06-1.27-2-5.08-4.37-5.08H236.81c-2.37,0-4.3,3.81-4.37,5.08H182c-3.2,0-5.56,2.08-5.56,5.28v1.62c0,3.2,2.36,7.06,5.56,7.06H316.94c3.2,0,5.44-3.86,5.44-7.06v-1.62A5.09,5.09,0,0,0,316.94,172.89Z"/>
        <path class="c" d="M259.9,178.51H239.45a2.62,2.62,0,0,1-2.62-2.62v-0.62a2.62,2.62,0,0,1,2.62-2.62H259.9a2.63,2.63,0,0,1,2.62,2.62v0.62A2.63,2.63,0,0,1,259.9,178.51Z"/>
        <g>
          <line class="c" x1="213.61" y1="220.85" x2="213.61" y2="228.81"/>
          <line class="c" x1="209.63" y1="224.83" x2="217.59" y2="224.83"/>
        </g>
        <g>
          <line class="c" x1="283.58" y1="205.28" x2="283.58" y2="213.25"/>
          <line class="c" x1="287.56" y1="209.27" x2="279.59" y2="209.27"/>
        </g>
        <g>
          <line class="c" x1="329.38" y1="230.77" x2="329.38" y2="244.08"/>
          <line class="c" x1="336.03" y1="237.42" x2="322.73" y2="237.42"/>
        </g>
        <line class="c" x1="249.82" y1="277.3" x2="249.81" y2="295.63"/>
        <circle class="c" cx="249.81" cy="300.36" r="4.73"/>
        <g>
          <line class="c" x1="279.81" y1="240.82" x2="308.91" y2="214"/>
          <line class="c" x1="255.39" y1="224.72" x2="269.73" y2="240.28"/>
          <line class="c" x1="216.13" y1="250.91" x2="245.4" y2="223.93"/>
          <g>
            <circle class="d" cx="313.99" cy="209.31" r="6.92" transform="translate(-22.45 38.41) rotate(-6.76)"/>
            <circle class="c" cx="313.99" cy="209.31" r="6.92" transform="translate(-22.45 38.41) rotate(-6.76)"/>
          </g>
          <g>
            <circle class="d" cx="274.51" cy="245.28" r="6.92" transform="translate(-26.96 34.02) rotate(-6.76)"/>
            <circle class="c" cx="274.51" cy="245.28" r="6.92" transform="translate(-26.96 34.02) rotate(-6.76)"/>
          </g>
          <g>
            <circle class="d" cx="250.76" cy="219.56" r="6.92" transform="translate(-24.1 31.04) rotate(-6.76)"/>
            <circle class="c" cx="250.76" cy="219.56" r="6.92" transform="translate(-24.1 31.04) rotate(-6.76)"/>
          </g>
          <g>
            <circle class="d" cx="211.03" cy="255.6" r="6.92" transform="translate(-28.62 26.62) rotate(-6.76)"/>
            <circle class="c" cx="211.03" cy="255.6" r="6.92" transform="translate(-28.62 26.62) rotate(-6.76)"/>
          </g>
        </g>
        <rect class="d" x="186.79" y="186.55" width="126.03" height="8.4"/>
      </g>
      <g>
        <path class="e" d="M197.77,287.53v9.3a11,11,0,0,1-11,11H150.73a11,11,0,0,1-11-11V216.91a11,11,0,0,1,11-11h36.06a11,11,0,0,1,11,11v70.62Z"/>
        <path class="c" d="M139.75,217.08v-0.16a11,11,0,0,1,11-11h36.06a11,11,0,0,1,11,11v0.16h-58Z"/>
        <path class="d" d="M139.59,217.08v-0.16a11,11,0,0,1,11-11h36.06a11,11,0,0,1,11,11v0.16h-58Z"/>
        <path class="c" d="M197.77,296.66v0.16a11,11,0,0,1-11,11H150.73a11,11,0,0,1-11-11v-0.16h58Z"/>
        <path class="d" d="M197.77,296.66v0.16a11,11,0,0,1-11,11H150.73a11,11,0,0,1-11-11v-0.16h58Z"/>
        <line class="c" x1="163.62" y1="302.83" x2="173.91" y2="302.83"/>
        <line class="c" x1="163.62" y1="211.5" x2="173.91" y2="211.5"/>
        <line class="c" x1="147.53" y1="229.26" x2="182.46" y2="229.26"/>
        <line class="c" x1="147.53" y1="239.93" x2="171.79" y2="239.93"/>
      </g>
    </g>
  </g>
</svg>
