<svg xmlns="http://www.w3.org/2000/svg" width="167.79mm" height="167.79mm" viewBox="0 0 475.62 475.62">
  <defs>
    <style>
      .a, .b, .f {
        fill: #fff;
      }

      .a {
        opacity: 0.33;
      }

      .c {
        fill: none;
      }

      .c, .f {
        stroke: #c2192b;
        stroke-linecap: round;
        stroke-linejoin: round;
        stroke-width: 1.5px;
      }

      .d, .e {
        fill: #c2192b;
      }

      .d {
        opacity: 0.3;
        isolation: isolate;
      }
    </style>
  </defs>
  <title>icones-business-circulo</title>
  <g>
    <circle class="a" cx="237.81" cy="237.81" r="237.81"/>
    <circle class="a" cx="237.81" cy="237.81" r="197.57"/>
    <circle class="b" cx="237.81" cy="237.81" r="159.31"/>
    <g>
      <path class="c" d="M170.28,227.94v-37a5.81,5.81,0,0,1,5.8-5.8H289.28a5.81,5.81,0,0,1,5.8,5.8v16.69"/>
      <path class="c" d="M295.08,262.32v28.37a5.81,5.81,0,0,1-5.8,5.8H176.07a5.81,5.81,0,0,1-5.8-5.8V270.14"/>
      <path class="d" d="M170.28,196.86V191.1a6,6,0,0,1,6-6H289.12a6,6,0,0,1,6,6v5.75H170.28Z"/>
      <path class="c" d="M170.28,196.86V191.1a6,6,0,0,1,6-6H289.12a6,6,0,0,1,6,6v5.75H170.28Z"/>
      <circle class="e" cx="177.88" cy="191" r="1.32"/>
      <circle class="e" cx="183.15" cy="191" r="1.32"/>
      <circle class="e" cx="188.43" cy="191" r="1.32"/>
      <path class="c" d="M165.55,228.53h38.93c6.72,0,11.84,4.62,11.84,11.34v17.78a12.42,12.42,0,0,1-11.47,12.23,3.11,3.11,0,0,1-.53,0v11.57l-11.87-11h-26.9c-6.72,0-12.24-6.15-12.24-12.88V239.88C153.31,233.15,158.83,228.53,165.55,228.53Z"/>
      <g>
        <path class="d" d="M237.58,280.88V210.16a3.64,3.64,0,0,1,3.63-3.63h7.86a3.64,3.64,0,0,1,3.63,3.63v70.71a3.64,3.64,0,0,1-3.63,3.63H241.2A3.64,3.64,0,0,1,237.58,280.88Z"/>
        <path class="d" d="M209.71,280.88V225.16a3.64,3.64,0,0,1,3.63-3.63h7.86a3.64,3.64,0,0,1,3.63,3.63v55.71a3.64,3.64,0,0,1-3.63,3.63h-7.86A3.63,3.63,0,0,1,209.71,280.88Z"/>
        <path class="d" d="M265.45,280.88V240.17a3.64,3.64,0,0,1,3.63-3.63h7.86a3.64,3.64,0,0,1,3.63,3.63v40.71a3.64,3.64,0,0,1-3.63,3.63h-7.86A3.63,3.63,0,0,1,265.45,280.88Z"/>
        <path class="d" d="M181.83,280.88V217.66a3.64,3.64,0,0,1,3.63-3.63h7.86a3.64,3.64,0,0,1,3.63,3.63v63.21a3.64,3.64,0,0,1-3.63,3.63h-7.86A3.63,3.63,0,0,1,181.83,280.88Z"/>
      </g>
      <path class="f" d="M320.86,207.53H271.08a15.92,15.92,0,0,0-15.77,15.77V246c0,8.6,6,16.28,15,16.28h0v14.2L286.47,263h34.39c8.6,0,15.45-8.4,15.45-17V223.31A15.65,15.65,0,0,0,320.86,207.53Z"/>
      <line class="c" x1="269.56" y1="221.03" x2="320.56" y2="221.03"/>
      <line class="c" x1="269.56" y1="233.03" x2="307.06" y2="233.03"/>
      <line class="c" x1="269.56" y1="243.53" x2="295.06" y2="243.53"/>
      <path class="f" d="M165.55,228.53h38.93c6.72,0,11.84,4.62,11.84,11.34v17.78a12.42,12.42,0,0,1-11.47,12.23,3.11,3.11,0,0,1-.53,0v11.57l-11.87-11h-26.9c-6.72,0-12.24-6.15-12.24-12.88V239.88C153.31,233.15,158.83,228.53,165.55,228.53Z"/>
      <line class="c" x1="163.06" y1="239.03" x2="203.56" y2="239.03"/>
      <line class="c" x1="163.06" y1="248.03" x2="197.56" y2="248.03"/>
      <line class="c" x1="163.06" y1="257.03" x2="187.06" y2="257.03"/>
    </g>
  </g>
</svg>
