<?xml version="1.0" encoding="utf-8"?>
<!-- Generator: Adobe Illustrator 19.2.1, SVG Export Plug-In . SVG Version: 6.00 Build 0)  -->
<svg version="1.1" id="Layer_1" xmlns="http://www.w3.org/2000/svg" xmlns:xlink="http://www.w3.org/1999/xlink" x="0px" y="0px"
	 width="1301.3px" height="431.6px" viewBox="0 0 1301.3 431.6" style="enable-background:new 0 0 1301.3 431.6;"
	 xml:space="preserve">
<style type="text/css">
	.st0{fill:none;stroke:#A7653E;stroke-width:24.1558;stroke-linecap:round;stroke-linejoin:round;stroke-miterlimit:10;}
	.st1{fill:#2F2224;}
	.st2{fill:#FFFFFF;}
	.st3{fill:#BB7641;}
	.st4{fill:#A7653E;}
	.st5{fill:none;stroke:#6F8BC2;stroke-width:6.1733;stroke-linecap:round;stroke-miterlimit:10;}
	.st6{fill:none;stroke:#C4C3C3;stroke-width:24.1558;stroke-linejoin:round;stroke-miterlimit:10;}
	.st7{fill:none;stroke:#F2F3F3;stroke-width:24.1558;stroke-linejoin:round;stroke-miterlimit:10;}
	.st8{fill:none;stroke:#BB7641;stroke-width:24.1558;stroke-linecap:round;stroke-linejoin:round;stroke-miterlimit:10;}
	.st9{fill:none;stroke:#07344D;stroke-width:24.1558;stroke-linecap:square;stroke-linejoin:round;stroke-miterlimit:10;}
	.st10{fill:none;stroke:#0C2A3A;stroke-width:24.1558;stroke-linecap:square;stroke-linejoin:round;stroke-miterlimit:10;}
	.st11{fill:none;stroke:#B26F40;stroke-width:15.4333;stroke-linecap:round;stroke-linejoin:round;stroke-miterlimit:10;}
	.st12{fill:#6F8BC2;}
	.st13{fill:#5774A6;}
	.st14{fill:#07344D;}
	.st15{fill:#1C1513;}
	.st16{fill:none;stroke:#A9693D;stroke-width:5.556;stroke-linecap:round;stroke-linejoin:round;stroke-miterlimit:10;}
	.st17{fill:#E3E3E3;}
	.st18{fill:#054465;}
	.st19{fill:none;stroke:#A9693D;stroke-width:15.4333;stroke-linecap:round;stroke-linejoin:round;stroke-miterlimit:10;}
	.st20{fill:#A9693D;}
	.st21{fill:none;stroke:#BB7641;stroke-width:15.4333;stroke-linecap:round;stroke-linejoin:round;stroke-miterlimit:10;}
	.st22{fill:none;stroke:#BB7641;stroke-width:7.6423;stroke-linecap:round;stroke-linejoin:round;stroke-miterlimit:10;}
	.st23{fill:none;stroke:#A7653E;stroke-width:5.3335;stroke-linecap:round;stroke-linejoin:round;stroke-miterlimit:10;}
	.st24{fill:none;stroke:#092C3E;stroke-width:14.2228;stroke-linecap:round;stroke-linejoin:round;stroke-miterlimit:10;}
	.st25{fill:none;stroke:#092630;stroke-width:24.001;stroke-linecap:round;stroke-linejoin:round;stroke-miterlimit:10;}
	.st26{fill:none;stroke:#0B3145;stroke-width:24.001;stroke-linecap:round;stroke-linejoin:round;stroke-miterlimit:10;}
	.st27{fill:#C17247;}
	.st28{fill:#2C1E20;}
	.st29{fill:#090D09;}
	.st30{fill:#001625;}
	.st31{fill:#0B3145;}
	.st32{fill:none;stroke:#BB7641;stroke-width:4.4446;stroke-linecap:round;stroke-linejoin:round;stroke-miterlimit:10;}
	.st33{fill:none;stroke:#092630;stroke-width:14.2228;stroke-linecap:round;stroke-linejoin:round;stroke-miterlimit:10;}
	.st34{fill:#FFEF00;}
	.st35{fill:none;stroke:#DCCF04;stroke-width:3.5557;stroke-linecap:round;stroke-linejoin:round;stroke-miterlimit:10;}
	.st36{opacity:0.5;fill:#FFFFFF;}
	.st37{fill:none;stroke:#BB7641;stroke-width:14.2228;stroke-linecap:round;stroke-linejoin:round;stroke-miterlimit:10;}
	.st38{fill:#F8DFE1;}
	.st39{fill:none;stroke:#BB7641;stroke-width:8.513;stroke-linecap:round;stroke-linejoin:round;stroke-miterlimit:10;}
	.st40{fill:none;stroke:#BB7641;stroke-width:7.1114;stroke-linecap:round;stroke-linejoin:round;stroke-miterlimit:10;}
	.st41{fill:none;stroke:#A7653E;stroke-width:22.7644;stroke-linecap:round;stroke-linejoin:round;stroke-miterlimit:10;}
	.st42{fill:none;stroke:#F9CD9B;stroke-width:2.8466;stroke-linecap:round;stroke-linejoin:round;stroke-miterlimit:10;}
	.st43{clip-path:url(#XMLID_4_);fill:#FFFFFF;}
	.st44{clip-path:url(#XMLID_4_);fill:#B6382E;}
	.st45{fill:none;stroke:#EBDD2C;stroke-width:24.001;stroke-linecap:round;stroke-linejoin:round;stroke-miterlimit:10;}
	.st46{fill:none;stroke:#F7EB31;stroke-width:24.001;stroke-linecap:round;stroke-linejoin:round;stroke-miterlimit:10;}
	.st47{fill:#FCEDEE;}
	.st48{fill:#091318;}
	.st49{fill:#F7EB31;}
	.st50{fill:#474641;}
	.st51{fill:none;stroke:#663152;stroke-width:23.5252;stroke-linecap:round;stroke-linejoin:round;stroke-miterlimit:10;}
	.st52{fill:none;stroke:#71375F;stroke-width:23.5252;stroke-linecap:round;stroke-linejoin:round;stroke-miterlimit:10;}
	.st53{fill:#CB5773;}
	.st54{fill:#E45E72;}
	.st55{fill:#71375F;}
	.st56{fill:none;stroke:#A7653E;stroke-width:18.9323;stroke-linecap:round;stroke-linejoin:round;stroke-miterlimit:10;}
	.st57{fill:none;stroke:#A7653E;stroke-width:1.0937;stroke-linecap:round;stroke-linejoin:round;stroke-miterlimit:10;}
	.st58{fill:#F4AB2B;}
	.st59{fill:#B1506A;}
	.st60{fill:none;stroke:#BB7641;stroke-width:5.556;stroke-linecap:round;stroke-linejoin:round;stroke-miterlimit:10;}
	.st61{fill:#A04C67;}
	.st62{fill:none;stroke:#D29A55;stroke-width:15.3676;stroke-linecap:round;stroke-linejoin:round;stroke-miterlimit:10;}
	.st63{fill:#D97700;}
	.st64{fill:none;stroke:#A7653E;stroke-width:21.5318;stroke-linecap:round;stroke-linejoin:round;stroke-miterlimit:10;}
	.st65{fill:#E5AB60;}
	.st66{fill:#C6904F;}
	.st67{fill:#D29A53;}
	.st68{clip-path:url(#XMLID_9_);fill:#FFFFFF;}
	.st69{clip-path:url(#XMLID_9_);fill:#B6382E;}
	.st70{fill:none;stroke:#C4C3C3;stroke-width:21.5318;stroke-linejoin:round;stroke-miterlimit:10;}
	.st71{fill:none;stroke:#F2F3F3;stroke-width:21.5318;stroke-linejoin:round;stroke-miterlimit:10;}
	.st72{fill:#A7653E;stroke:#D29A55;stroke-width:21.3938;stroke-linecap:round;stroke-linejoin:round;stroke-miterlimit:10;}
	.st73{fill:#BB7641;stroke:#DAA15A;stroke-width:21.3938;stroke-linecap:round;stroke-linejoin:round;stroke-miterlimit:10;}
	.st74{fill:none;stroke:#379279;stroke-width:21.3938;stroke-linecap:round;stroke-linejoin:round;stroke-miterlimit:10;}
	.st75{fill:none;stroke:#2F866D;stroke-width:21.3938;stroke-linecap:round;stroke-linejoin:round;stroke-miterlimit:10;}
	.st76{fill:#E98222;}
	.st77{fill:#379279;}
	.st78{fill:#FFE943;}
	.st79{fill:none;stroke:#DAA15A;stroke-width:15.3676;stroke-linecap:round;stroke-linejoin:round;stroke-miterlimit:10;}
	.st80{fill:none;stroke:#FFFFFF;stroke-width:2.0079;stroke-linecap:round;stroke-linejoin:round;stroke-miterlimit:10;}
	.st81{fill:#00353A;}
	.st82{fill:#004960;}
	.st83{fill:none;stroke:#2C1E20;stroke-width:6.1172;stroke-linecap:round;stroke-linejoin:round;stroke-miterlimit:10;}
	.st84{fill:none;stroke:#A7653E;stroke-width:22.7637;stroke-linecap:round;stroke-linejoin:round;stroke-miterlimit:10;}
	.st85{fill:#9C5A41;stroke:#A7653E;stroke-width:0.1778;stroke-miterlimit:10;}
	.st86{fill:none;stroke:#A28D30;stroke-width:25.2103;stroke-linecap:round;stroke-linejoin:round;stroke-miterlimit:10;}
	.st87{fill:none;stroke:#A9693D;stroke-width:25.2103;stroke-linecap:round;stroke-linejoin:round;stroke-miterlimit:10;}
	.st88{fill:none;stroke:#AA9932;stroke-width:25.2103;stroke-linecap:round;stroke-linejoin:round;stroke-miterlimit:10;}
	.st89{fill:none;stroke:#A9693D;stroke-width:14.2228;stroke-linecap:round;stroke-linejoin:round;stroke-miterlimit:10;}
	.st90{fill:#3F2E35;}
	.st91{fill:#325649;}
	.st92{fill:#366457;}
	.st93{fill:#AA9932;}
	.st94{fill:none;stroke:#A9693D;stroke-width:8.513;stroke-linecap:round;stroke-linejoin:round;stroke-miterlimit:10;}
	.st95{fill:#D8D9D9;}
</style>
<g>
	<g>
		<line class="st0" x1="535.9" y1="108" x2="535.7" y2="143.5"/>
		<g>
			
				<ellipse transform="matrix(0.9653 -0.2612 0.2612 0.9653 -6.6221 138.4729)" class="st1" cx="517.6" cy="94.1" rx="22.6" ry="22.6"/>
			
				<ellipse transform="matrix(0.9653 -0.2612 0.2612 0.9653 -5.9442 147.7151)" class="st1" cx="552.7" cy="96.2" rx="19.7" ry="19.7"/>
			
				<ellipse transform="matrix(0.9653 -0.2612 0.2612 0.9653 0.2452 135.5983)" class="st1" cx="510.2" cy="66.9" rx="22.6" ry="22.6"/>
			
				<ellipse transform="matrix(0.9653 -0.2612 0.2612 0.9653 2.0288 149.017)" class="st1" cx="561.6" cy="66.9" rx="22.6" ry="22.6"/>
		</g>
		
			<ellipse transform="matrix(0.9653 -0.2612 0.2612 0.9653 6.3494 135.5086)" class="st1" cx="512.9" cy="43.9" rx="19.7" ry="19.7"/>
		<g>
			<g>
				<defs>
					<path id="XMLID_143_" d="M535.2,109.2L535.2,109.2c-19.8,0.1-35.9-15.9-36-35.8l-0.1-14.9c-0.1-19.8,15.9-35.9,35.8-36h0
						c19.8-0.1,35.9,15.9,36,35.8l0.1,14.9C571.1,93,555.1,109.2,535.2,109.2z"/>
				</defs>
				<use xlink:href="#XMLID_143_"  style="overflow:visible;fill:#BB7641;"/>
				<clipPath id="XMLID_2_">
					<use xlink:href="#XMLID_143_"  style="overflow:visible;"/>
				</clipPath>
			</g>
			
				<ellipse transform="matrix(1 -3.532212e-003 3.532212e-003 1 -0.2087 1.8285)" class="st2" cx="517.5" cy="60" rx="2.8" ry="2.8"/>
			
				<ellipse transform="matrix(1 -3.532212e-003 3.532212e-003 1 -0.208 1.9538)" class="st2" cx="553" cy="59.9" rx="2.8" ry="2.8"/>
			<g>
				
					<ellipse transform="matrix(1 -3.532212e-003 3.532212e-003 1 -0.2465 1.7683)" class="st3" cx="500.5" cy="70.7" rx="7" ry="7"/>
				
					<ellipse transform="matrix(1 -3.532212e-003 3.532212e-003 1 -0.2465 1.7683)" class="st4" cx="500.5" cy="70.7" rx="3.9" ry="3.9"/>
			</g>
			<path class="st1" d="M522.1,49.5L522.1,49.5c0-1.5-1.2-2.7-2.7-2.7l-6.5,0l0,0c0,1.5,1.2,2.8,2.8,2.7L522.1,49.5z"/>
			<path class="st1" d="M549,47L549,47l6.3,0c1.5,0,2.7,1.2,2.7,2.7l-1.6,0c0,0,0,0,0,0l-4.6,0C550.3,49.7,549,48.5,549,47z"/>
			<path class="st4" d="M535.1,78.2L535.1,78.2c-1.4,0-2.5-1.1-2.5-2.5l-0.1-14.4c0-1.4,1.1-2.5,2.5-2.5l0,0c1.4,0,2.5,1.1,2.5,2.5
				l0.1,14.4C537.7,77,536.5,78.2,535.1,78.2z"/>
			
				<ellipse transform="matrix(1 -3.534751e-003 3.534751e-003 1 -0.2716 1.7668)" class="st2" cx="499.7" cy="77.7" rx="1.9" ry="1.9"/>
			<g>
				
					<ellipse transform="matrix(1 -3.532212e-003 3.532212e-003 1 -0.2485 2.0199)" class="st3" cx="571.7" cy="71.4" rx="7" ry="7"/>
				
					<ellipse transform="matrix(1 -3.532212e-003 3.532212e-003 1 -0.2485 2.0199)" class="st4" cx="571.7" cy="71.4" rx="3.9" ry="3.9"/>
			</g>
			
				<ellipse transform="matrix(1 -3.534751e-003 3.534751e-003 1 -0.2736 2.0185)" class="st2" cx="570.9" cy="78.4" rx="1.9" ry="1.9"/>
		</g>
		<path class="st1" d="M519.3,24.2l-5.9,1.1c-8.2,0.8-15,6.9-16.5,15.1l-1.4,7.3l2.4,0.2c10.5,1,19.8-6.7,20.8-17.2L519.3,24.2z"/>
		<path class="st2" d="M522.6,81.7h24.9c0,0,1.7,14-11.9,14C521.7,95.8,522.6,81.7,522.6,81.7z"/>
		<path class="st5" d="M503.8,41.1c3.3-12.6,8.2-22.6,33.2-22.6c21.1,0,32.1,17.9,34.5,28.3"/>
		<line class="st6" x1="550.4" y1="431.6" x2="550.4" y2="383.9"/>
		<line class="st7" x1="521.2" y1="431.6" x2="521.2" y2="380.2"/>
		<polyline class="st0" points="550.4,385.5 550.4,353.4 550.4,277.7 		"/>
		<polyline class="st8" points="521.2,385.5 521.2,352 521.2,275.3 		"/>
		<line class="st9" x1="521.2" y1="283" x2="521.2" y2="216.4"/>
		<line class="st10" x1="550.4" y1="283" x2="550.4" y2="218.8"/>
		<line class="st11" x1="553.7" y1="133.9" x2="571.5" y2="159.2"/>
		<path class="st12" d="M562.6,230.3h-53.7l0-93.1c0-10.1,8.3-18.3,18.3-18.2h17.6c9.9,0.2,17.8,8.3,17.8,18.2L562.6,230.3z"/>
		<path class="st13" d="M565.1,418H552c-7.5,0-13.6,6.1-13.6,13.6l0,0h40.4l0,0C578.7,424.1,572.6,418,565.1,418z"/>
		<path class="st12" d="M519.8,418h-13.1c-7.5,0-13.6,6.1-13.6,13.6l0,0h40.4l0,0C533.5,424.1,527.3,418,519.8,418z"/>
		<path class="st14" d="M538.3,254.7v-24.3l-28.1,0v8.7c0,8.7,5.7,15.8,14.4,15.8L538.3,254.7z"/>
		<g>
			<path class="st15" d="M539.7,21.5c-0.9,0-1.8,0-2.7,0.1c-4.7,0.5-9,2.1-12.6,4.7c1.6-0.2,3.2-0.2,4.9-0.2
				c14.3,0,27.2,6.3,36.1,16.1C562.7,30.1,552,21.5,539.7,21.5z"/>
			<path class="st1" d="M524.4,26.3c3.6-2.5,7.9-4.2,12.6-4.7c0.9-0.1,1.8-0.1,2.7-0.1c12.3,0,22.7,8.3,25.3,20.3
				c1.3,1.5,3.2,3.6,4.7,9c6.3,0,2.6-3.9,2.4-6.2c-0.8-8.1-4.6-15.5-10.6-21c-6-5.4-13.7-8.4-21.7-8.4c-1.1,0-2.2,0.1-3.3,0.2
				c-8.7,0.9-16.5,5-22,11.8c-0.4,0.5-0.8,1-1.2,1.6C516.8,27.5,520.5,26.7,524.4,26.3z"/>
		</g>
		<g>
			<line class="st16" x1="519.9" y1="117.2" x2="523.6" y2="108.2"/>
			<g>
				<line class="st16" x1="547.9" y1="116.1" x2="544.7" y2="108.2"/>
				<g>
					<g>
						<defs>
							<path id="XMLID_142_" d="M543.4,132.3H527c-1.4,0-2.6-1.2-2.6-2.6V90.3c0-1.4,1.2-2.6,2.6-2.6h16.4c1.4,0,2.6,1.2,2.6,2.6
								v39.4C546,131.2,544.8,132.3,543.4,132.3z"/>
						</defs>
						<use xlink:href="#XMLID_142_"  style="overflow:visible;fill:#0B344D;"/>
						<clipPath id="XMLID_3_">
							<use xlink:href="#XMLID_142_"  style="overflow:visible;"/>
						</clipPath>
					</g>
					<circle class="st17" cx="535.2" cy="90.4" r="1.1"/>
					<circle class="st18" cx="535.2" cy="98.1" r="3.5"/>
				</g>
			</g>
			<g>
				<line class="st19" x1="496.7" y1="162.4" x2="522.4" y2="121.9"/>
				<line class="st16" x1="521.8" y1="115.4" x2="542.1" y2="115.4"/>
				<path class="st20" d="M540.4,118.4l-17,0.2l0.2,11.2l5.8-0.1C535.5,129.7,540.5,124.6,540.4,118.4L540.4,118.4z"/>
			</g>
		</g>
		<line class="st21" x1="571.7" y1="162.4" x2="546" y2="121.9"/>
		<line class="st22" x1="546.6" y1="115.4" x2="526.2" y2="115.4"/>
		<path class="st3" d="M527.9,118.4l17,0.2l-0.2,11.2l-5.8-0.1C532.8,129.7,527.8,124.6,527.9,118.4L527.9,118.4z"/>
	</g>
	<g>
		<path class="st23" d="M27.7,70.5c-0.4-1.3-5.2-12.3-5.2-12.3"/>
		<polyline class="st24" points="73.8,121.7 22.6,119 7.1,67 		"/>
		<line class="st25" x1="102.7" y1="415.7" x2="102.7" y2="209.1"/>
		<line class="st26" x1="75.3" y1="417.3" x2="75.3" y2="240"/>
		<g>
			<path class="st27" d="M90.9,113.2L90.9,113.2c4.9,0,8.8-4,8.8-8.8l-0.1-18.4c0-4.9-4-8.8-8.8-8.8h0c-4.9,0-8.8,4-8.8,8.8
				l0.1,18.4C82,109.3,86,113.2,90.9,113.2z"/>
			<g>
				<path class="st3" d="M86.7,97.3L86.7,97.3c16.8,2.4,32.3-9.2,34.7-26l3.6-25c2.4-16.8-9.2-32.3-26-34.7l0,0
					c-16.8-2.4-32.3,9.2-34.7,26l-3.6,25C58.3,79.4,69.9,94.9,86.7,97.3z"/>
				<g>
					
						<ellipse transform="matrix(0.1417 -0.9899 0.9899 0.1417 34.0451 149.2167)" class="st2" cx="103.1" cy="55" rx="2.6" ry="2.6"/>
					
						<ellipse transform="matrix(0.1417 -0.9899 0.9899 0.1417 8.6532 109.7839)" class="st2" cx="67.6" cy="49.9" rx="2.6" ry="2.6"/>
				</g>
				<path class="st28" d="M89.4,43l-27-3.6c-8.9-1.2-15.2-9.4-14-18.4l0,0l53.5,7.4c8.9,1.2,15.2,9.4,14,18.4L89.4,43z"/>
				<path class="st28" d="M122.8,37.8L66.8,30c-8.9-1.2-15.2-9.4-14-18.4l0,0l56.1,7.8c8.9,1.2,7,8.2,5.8,17.2L122.8,37.8z"/>
				<path class="st28" d="M116.6,14.2L112.9,41c-1,7,4,13.5,11,14.4l0,0l3-21.8c1-7-4-13.5-11-14.4L116.6,14.2z"/>
				<path class="st4" d="M80.5,66.5L80.5,66.5c1.2,0.2,2.4-0.7,2.5-1.9l1.8-12.7c0.2-1.2-0.7-2.4-1.9-2.5h0
					c-1.2-0.2-2.4,0.7-2.5,1.9l-1.8,12.7C78.4,65.2,79.2,66.3,80.5,66.5z"/>
				<g>
					
						<ellipse transform="matrix(0.1417 -0.9899 0.9899 0.1417 44.4266 174.8071)" class="st3" cx="123" cy="61.8" rx="6.8" ry="6.8"/>
					
						<ellipse transform="matrix(0.1417 -0.9899 0.9899 0.1417 44.3483 174.7168)" class="st4" cx="122.9" cy="61.8" rx="3.4" ry="3.4"/>
				</g>
				<path class="st28" d="M64.4,24.9l62.4,8.9v0c1.7-11.6-6.6-22.4-18.2-24.1L88.4,6.8C76.8,5.2,66,13.3,64.4,24.9L64.4,24.9z"/>
				<path class="st28" d="M108.4,51.5l-5.9-0.9c-2-0.3-3.3-2.1-3-4.1v0l2.6,0.4l3.2,0.5C107.3,47.7,108.7,49.5,108.4,51.5
					L108.4,51.5z"/>
				<path class="st28" d="M62.5,44.9l5.9,0.8c2,0.3,3.8-1.1,4-3.1v0l-2.6-0.4l-3.3-0.4C64.6,41.6,62.8,42.9,62.5,44.9L62.5,44.9z"/>
			</g>
			<path class="st2" d="M75.7,72.6l14.8,1.6c1.1,0.1,1.8,1.1,1.6,2.2c-0.6,3.4-2.8,10.2-10.3,9.4c-7.8-0.8-8.3-7.9-8.1-11.4
				C73.7,73.2,74.6,72.5,75.7,72.6z"/>
		</g>
		<path id="XMLID_141_" class="st14" d="M114.7,239.2l-51.4,0l0-116.2c0-9.7,7.9-17.6,17.6-17.4l16.8,0c9.4,0.1,17,8,17,17.4
			L114.7,239.2z"/>
		<path class="st29" d="M110,418.5l-14.5,0c-7.2,0-13.1,5.8-13.1,13.1l0,0l40.6,0l0,0C123.1,424.4,117.3,418.5,110,418.5z"/>
		<path class="st30" d="M81.3,418.5l-12.5,0c-7.2,0-13.1,5.8-13.1,13.1l38.6,0l0,0C94.4,424.4,88.5,418.5,81.3,418.5z"/>
		<rect x="63.3" y="239.2" class="st31" width="27.4" height="26.2"/>
		<path class="st32" d="M2.5,64.3c0.2-1,0.4-7.6,9.8-6.1"/>
		<polyline class="st33" points="103.9,124.6 63.3,114.5 24.4,72.4 		"/>
		<g>
			<path class="st34" d="M20.8,41.8l-8.9-3.4l0,0c-0.3-0.1-0.7-0.2-1.1-0.2c-1.6,0-2.9,1.3-2.9,2.9l0,30.8c0,1.3,0.8,2.3,1.9,2.7
				l9.9,3.8L20.8,41.8z"/>
			<line class="st35" x1="19.9" y1="43.3" x2="19.9" y2="76.7"/>
			<path class="st2" d="M13.6,43.4c0,0.6-0.4,0.9-1,0.8c-0.5-0.2-1-0.8-1-1.3c0-0.6,0.4-0.9,1-0.8C13.1,42.2,13.6,42.8,13.6,43.4z"
				/>
			<path class="st36" d="M15.1,50.4c0,1.6-1.2,2.5-2.6,2.1s-2.6-2-2.6-3.5s1.2-2.5,2.6-2.1C14,47.3,15.1,48.9,15.1,50.4z"/>
		</g>
		<path class="st4" d="M21.4,78l-6.8-2c-3.6-1.1-5.8-4.9-4.9-8.4l0.3-1c1-3.5,4.7-5.5,8.4-4.4l6.8,2c3.6,1.1,5.8,4.9,4.9,8.4l-0.3,1
			C28.8,77.1,25.1,79.1,21.4,78z"/>
		<path class="st3" d="M8.4,60l6.3,2c3.4,1.1,5.4,4.6,4.4,7.9l-0.3,0.9c-1,3.3-4.5,5.1-7.9,4l-6.3-2c-3.4-1.1-5.4-4.6-4.4-7.9
			L0.5,64C1.5,60.7,5,59,8.4,60z"/>
	</g>
	<g>
		<g>
			<polyline class="st37" points="283.3,118.6 335.7,123.6 365.4,126.5 			"/>
			<g>
				<path class="st38" d="M307.8,128.2c0,0-3.8,0-4.1,0l-12-1.1c-4.2-0.4-7.2-4.1-6.8-8.2s4.1-7.2,8.2-6.8l15.4,1.1L307.8,128.2z"/>
			</g>
			<line class="st39" x1="365" y1="121.9" x2="371.1" y2="118.2"/>
			<line class="st40" x1="365.6" y1="121.5" x2="386.7" y2="121.1"/>
			<path class="st3" d="M385.9,120.7l-22.9,0.4l0.2,9.2c0,1.8,1.5,3.3,3.4,3.3l7.1-0.1C380.6,133.3,386.1,127.6,385.9,120.7
				L385.9,120.7z"/>
		</g>
		<line class="st41" x1="272.8" y1="85.3" x2="270.4" y2="118.8"/>
		<g>
			<path class="st3" d="M270.4,95L270.4,95c-16.4-3.7-26.6-20-22.8-36.4l4.6-20.1c3.7-16.3,20-26.5,36.4-22.8l0,0
				c16.4,3.7,26.6,20,22.8,36.4l-4.6,20.1C303,88.5,286.8,98.7,270.4,95z"/>
			<path class="st28" d="M280.6,71.4l6.8,1.5c2.3,0.5,4.5-0.9,5-3.2v0l-3.1-0.7l-3.8-0.8C283.3,67.7,281.1,69.1,280.6,71.4
				L280.6,71.4z"/>
			<path class="st28" d="M298.6,75.5l-6.8-1.6c-2.3-0.5-3.7-2.8-3.1-5.1v0l3.1,0.7l3.8,0.9C297.8,71,299.2,73.2,298.6,75.5
				L298.6,75.5z"/>
			
				<ellipse transform="matrix(0.2227 -0.9749 0.9749 0.2227 168.243 311.7134)" class="st2" cx="279.6" cy="50.4" rx="2.6" ry="2.6"/>
			
				<ellipse transform="matrix(0.2227 -0.9749 0.9749 0.2227 182.0101 342.3921)" class="st2" cx="305.7" cy="57.1" rx="2.6" ry="2.6"/>
			<g>
				
					<ellipse transform="matrix(0.2227 -0.9749 0.9749 0.2227 143.0819 284.8973)" class="st3" cx="250.2" cy="52.7" rx="6.5" ry="6.5"/>
				
					<ellipse transform="matrix(0.2227 -0.9749 0.9749 0.2227 143.0819 284.8973)" class="st4" cx="250.2" cy="52.7" rx="3.7" ry="3.7"/>
			</g>
			<path class="st4" d="M290.1,71.6L290.1,71.6c-1.5-0.3-2.4-1.8-2.1-3.3l3.4-15.4c0.3-1.5,1.8-2.5,3.3-2.1l0,0
				c1.5,0.3,2.4,1.8,2.1,3.3l-3.4,15.4C293.1,71,291.6,72,290.1,71.6z"/>
			<path class="st42" d="M263.1,27.5c1.1-1.2,5.4-4.7,11.9-5.5"/>
			<line class="st42" x1="279.5" y1="21.7" x2="279.5" y2="21.7"/>
			<path class="st28" d="M275,43.9l7.9,1.7c2.6,0.6,5.2-1.1,5.8-3.7v0l-3.5-0.8l-4.3-0.9C278.2,39.7,275.6,41.3,275,43.9L275,43.9z"
				/>
			<path class="st28" d="M314.2,53.3l-7.3-1.7c-2.4-0.6-3.9-3-3.4-5.4v0l3.3,0.7l4,1C313.2,48.5,314.7,50.9,314.2,53.3L314.2,53.3z"
				/>
			<g>
				<defs>
					<path id="XMLID_140_" d="M285,87.2L285,87.2c-5.5-1-9.2-6.3-8.1-11.8v0c0.1-0.6,0.7-1,1.3-0.9l17.7,3.3c0.6,0.1,1,0.7,0.9,1.3
						l0,0C295.8,84.6,290.5,88.2,285,87.2z"/>
				</defs>
				<use xlink:href="#XMLID_140_"  style="overflow:visible;fill:#6A4026;"/>
				<clipPath id="XMLID_4_">
					<use xlink:href="#XMLID_140_"  style="overflow:visible;"/>
				</clipPath>
				
					<rect x="276.1" y="75" transform="matrix(0.9849 0.1733 -0.1733 0.9849 17.7487 -48.5758)" class="st43" width="21.9" height="4.6"/>
				<ellipse transform="matrix(0.1827 -0.9832 0.9832 0.1827 147.4774 351.3117)" class="st44" cx="285" cy="87" rx="4" ry="7.1"/>
			</g>
		</g>
		<line class="st45" x1="284.2" y1="415.7" x2="284.1" y2="209.1"/>
		<line class="st46" x1="256.8" y1="417.3" x2="256.8" y2="240"/>
		<path id="XMLID_139_" class="st47" d="M296.2,239.2l-51.4,0l0-116.2c0-9.7,7.9-17.6,17.6-17.4l16.8,0c9.4,0.1,17,8,17,17.4
			L296.2,239.2z"/>
		<path class="st48" d="M291.5,418.5l-14.5,0c-7.2,0-13.1,5.8-13.1,13.1l0,0l40.6,0l0,0C304.6,424.4,298.7,418.5,291.5,418.5z"/>
		<path class="st30" d="M262.8,418.5l-12.5,0c-7.2,0-13.1,5.8-13.1,13.1l38.6,0l0,0C275.9,424.4,270,418.5,262.8,418.5z"/>
		<rect x="244.8" y="239.2" class="st49" width="27.4" height="26.2"/>
		<g>
			<g>
				<defs>
					<path id="XMLID_130_" d="M244,266.2l-4.8-12.2c-0.4-1.1,0.1-2.3,1.2-2.7l29.3-11.6c1.1-0.4,2.3,0.1,2.7,1.2l4.8,12.2
						c0.4,1.1-0.1,2.3-1.2,2.7l-29.3,11.6C245.6,267.7,244.4,267.2,244,266.2z"/>
				</defs>
				<use xlink:href="#XMLID_130_"  style="overflow:visible;fill:#1D1414;"/>
				<clipPath id="XMLID_5_">
					<use xlink:href="#XMLID_130_"  style="overflow:visible;"/>
				</clipPath>
			</g>
			
				<ellipse transform="matrix(0.9294 -0.3691 0.3691 0.9294 -72.1748 118.126)" class="st17" cx="272.7" cy="247.7" rx="0.9" ry="0.9"/>
			
				<ellipse transform="matrix(0.9294 -0.3691 0.3691 0.9294 -73.4041 116.1954)" class="st50" cx="267" cy="250" rx="2.8" ry="2.8"/>
		</g>
		<g>
			<polyline class="st37" points="256.9,120.9 242.8,179.1 254.7,252.3 			"/>
			<g>
				<path class="st38" d="M242.6,147.9l7-28.6c1-4.1,5.1-6.5,9.1-5.6c4.1,1,6.5,5.1,5.6,9.1l-6.7,29.6L242.6,147.9z"/>
			</g>
		</g>
		<path class="st3" d="M245.5,253.7l-1.9-9.7c-1-5.2,2.2-10.4,7.3-11.5l1.4-0.3c5-1.1,9.9,2.3,10.9,7.5l1.9,9.7
			c1,5.2-2.2,10.4-7.3,11.5l-1.4,0.3C251.4,262.4,246.5,259,245.5,253.7z"/>
	</g>
	<g>
		<polyline class="st21" points="1270.8,206.6 1293.6,159 1256.1,111.5 		"/>
		<polyline class="st51" points="1253.9,418.4 1253.9,345.1 1253.9,228.5 		"/>
		<polyline class="st52" points="1224.8,416.6 1224.8,343.7 1224.8,254.6 		"/>
		<path class="st53" d="M1262.8,417.7h-13.1c-7.5,0-13.6,6.1-13.6,13.6v0h40.4v0C1276.4,423.8,1270.3,417.7,1262.8,417.7z"/>
		<path class="st54" d="M1230.7,418h-13.1c-7.5,0-13.6,6.1-13.6,13.6l0,0h40.4l0,0C1244.4,424.1,1238.3,418,1230.7,418z"/>
		<rect x="1213" y="239.8" class="st55" width="29.1" height="26.2"/>
		<g>
			
				<ellipse transform="matrix(0.9653 -0.2612 0.2612 0.9653 28.2173 320.2935)" class="st1" cx="1218.9" cy="54" rx="17.8" ry="17.8"/>
			
				<ellipse transform="matrix(0.9653 -0.2612 0.2612 0.9653 29.6152 330.8106)" class="st1" cx="1259.2" cy="54" rx="17.8" ry="17.8"/>
		</g>
		<line class="st56" x1="1239.7" y1="85.9" x2="1239.5" y2="113.7"/>
		
			<ellipse transform="matrix(0.9653 -0.2612 0.2612 0.9653 33.6858 319.0626)" class="st1" cx="1217" cy="32.8" rx="15.4" ry="15.4"/>
		
			<ellipse transform="matrix(0.9653 -0.2612 0.2612 0.9653 38.984 324.1762)" class="st1" cx="1238.9" cy="15.4" rx="15.4" ry="15.4"/>
		
			<ellipse transform="matrix(0.9653 -0.2612 0.2612 0.9653 36.8994 328.1528)" class="st1" cx="1252.8" cy="25.3" rx="15.4" ry="15.4"/>
		
			<ellipse transform="matrix(0.9653 -0.2612 0.2612 0.9653 33.9571 331.2699)" class="st1" cx="1263.1" cy="37.9" rx="15.4" ry="15.4"/>
		<g>
			<g>
				<defs>
					<path id="XMLID_129_" d="M1239.2,86.8L1239.2,86.8c-15.5,0.1-28.2-12.5-28.2-28l0-11.7c-0.1-15.5,12.5-28.2,28-28.2h0
						c15.5-0.1,28.2,12.5,28.2,28l0,11.7C1267.2,74.2,1254.7,86.8,1239.2,86.8z"/>
				</defs>
				<use xlink:href="#XMLID_129_"  style="overflow:visible;fill:#BB7641;"/>
				<clipPath id="XMLID_6_">
					<use xlink:href="#XMLID_129_"  style="overflow:visible;"/>
				</clipPath>
			</g>
			<g>
				
					<ellipse transform="matrix(1 -3.532212e-003 3.532212e-003 1 -0.1925 4.2812)" class="st3" cx="1211.9" cy="56.6" rx="5.5" ry="5.5"/>
				
					<ellipse transform="matrix(1 -3.532212e-003 3.532212e-003 1 -0.1925 4.2812)" class="st4" cx="1211.9" cy="56.6" rx="3.1" ry="3.1"/>
			</g>
			<path class="st1" d="M1229.5,42.9L1229.5,42.9c0-1.2-1-2.1-2.2-2.1l-5.1,0v0c0,1.2,1,2.2,2.2,2.1L1229.5,42.9z"/>
			<path class="st1" d="M1249.3,40.9L1249.3,40.9l4.9,0c1.2,0,2.1,1,2.2,2.1l-1.3,0c0,0,0,0,0,0l-3.6,0
				C1250.3,43,1249.3,42,1249.3,40.9z"/>
			<path class="st4" d="M1239.7,62.5L1239.7,62.5c-1.1,0-2-0.9-2-2l0-11.3c0-1.1,0.9-2,2-2l0,0c1.1,0,2,0.9,2,2l0,11.3
				C1241.7,61.6,1240.8,62.5,1239.7,62.5z"/>
			
				<ellipse transform="matrix(1 -3.534751e-003 3.534751e-003 1 -0.2121 4.282)" class="st2" cx="1211.3" cy="62.2" rx="1.5" ry="1.5"/>
			<g>
				
					<ellipse transform="matrix(1 -3.532212e-003 3.532212e-003 1 -0.194 4.4783)" class="st3" cx="1267.8" cy="57.2" rx="5.5" ry="5.5"/>
				
					<ellipse transform="matrix(1 -3.532212e-003 3.532212e-003 1 -0.194 4.4783)" class="st4" cx="1267.8" cy="57.2" rx="3.1" ry="3.1"/>
			</g>
			
				<ellipse transform="matrix(1 -3.534751e-003 3.534751e-003 1 -0.2137 4.4793)" class="st2" cx="1267.1" cy="62.7" rx="1.5" ry="1.5"/>
			<path class="st2" d="M1230.5,67.4l17,0.1c0,0,0.7,9.9-8.6,9.9C1229.4,77.3,1230.5,67.4,1230.5,67.4z"/>
			<path class="st57" d="M1223.7,49.8c0-3.5,4.6-3.6,4.6-0.1"/>
			<path class="st57" d="M1250.8,49.8c0-3.5,4.6-3.6,4.6-0.1"/>
		</g>
		<ellipse transform="matrix(0.9653 -0.2612 0.2612 0.9653 37.5913 319.8052)" class="st1" cx="1221.8" cy="18.5" rx="13" ry="13"/>
		
			<ellipse transform="matrix(0.9653 -0.2612 0.2612 0.9653 36.1383 324.7147)" class="st1" cx="1239.5" cy="26.4" rx="12.3" ry="12.3"/>
		
			<ellipse transform="matrix(0.9653 -0.2612 0.2612 0.9653 38.8902 329.5771)" class="st1" cx="1259.2" cy="18.5" rx="12.3" ry="12.3"/>
		<path class="st58" d="M1211,41v3.6c0-32.1,56.4-26.4,56.4,0l-0.1-1.6C1267.3,8.7,1211,6.1,1211,41z"/>
		<path class="st59" d="M1266.2,239.8h-53.7l0-123.3c0-10.1,7.6-18.3,17.7-18.2c0,11.1,18.9,11.1,18.9,0c9.9,0.2,17.1,8.3,17.1,18.2
			L1266.2,239.8z"/>
		<g>
			<line class="st16" x1="1232.2" y1="86.5" x2="1236" y2="77.5"/>
			<g>
				<g>
					<g>
						<defs>
							<path id="XMLID_85_" d="M1255.7,101.6h-16.4c-1.4,0-2.6-1.2-2.6-2.6V59.6c0-1.4,1.2-2.6,2.6-2.6h16.4c1.4,0,2.6,1.2,2.6,2.6
								V99C1258.3,100.5,1257.2,101.6,1255.7,101.6z"/>
						</defs>
						<use xlink:href="#XMLID_85_"  style="overflow:visible;fill:#0B344D;"/>
						<clipPath id="XMLID_7_">
							<use xlink:href="#XMLID_85_"  style="overflow:visible;"/>
						</clipPath>
					</g>
					<circle class="st17" cx="1247.6" cy="59.7" r="1.1"/>
					<circle class="st18" cx="1247.6" cy="67.3" r="3.5"/>
				</g>
			</g>
			<g>
				<line class="st21" x1="1200.3" y1="144.4" x2="1234.7" y2="91.2"/>
				<line class="st60" x1="1234.1" y1="84.7" x2="1254.5" y2="84.7"/>
				<path class="st3" d="M1252.8,87l-17,0.2l0.2,11.2l5.8-0.1C1247.9,98.3,1252.8,93.2,1252.8,87L1252.8,87z"/>
			</g>
		</g>
		<g>
			<line class="st22" x1="1274.5" y1="200.5" x2="1254.2" y2="200.5"/>
			<path class="st3" d="M1255.9,203.5l17,0.2l-0.2,11.2l-5.8-0.1C1260.7,214.8,1255.8,209.7,1255.9,203.5L1255.9,203.5z"/>
		</g>
		<g>
			<path class="st61" d="M1270.4,142.6l-18-23.4c-2.6-3.3-1.9-8.2,1.5-11c3.4-2.7,8.2-2.3,10.8,1l19,23.8L1270.4,142.6z"/>
		</g>
	</g>
	<g>
		<path class="st1" d="M795.2,201.2H727c-1.2-49.2-4.7-95.5,2.9-112.7h61.8C799.1,98.7,796.1,157.9,795.2,201.2z"/>
		<polyline class="st62" points="744.3,180.9 703.6,173.8 735.6,137.7 		"/>
		<path class="st63" d="M735.8,187.6l-11.3-2.1l2.9-16l11.3,2.1c4.4,0.8,7.3,5,6.5,9.4l0,0C744.4,185.5,740.2,188.4,735.8,187.6z"/>
		<line class="st64" x1="761.6" y1="153.1" x2="761.4" y2="184.7"/>
		<g>
			<g>
				<path class="st65" d="M735.5,119c0-3.3-2.8-5.9-6.2-5.9c-3.4,0-6.2,2.7-6.2,6c0,3.3,2.8,5.9,6.2,5.9
					C732.8,125,735.6,122.3,735.5,119z"/>
				
					<ellipse transform="matrix(1 -2.949390e-003 2.949390e-003 1 -0.348 2.1517)" class="st66" cx="729.3" cy="119.1" rx="3.5" ry="3.4"/>
			</g>
			
				<ellipse transform="matrix(1 -3.534751e-003 3.534751e-003 1 -0.4384 2.5753)" class="st2" cx="728.3" cy="125.3" rx="1.7" ry="1.7"/>
			<g>
				<defs>
					<path id="XMLID_172_" d="M761,154.2L761,154.2c-17.7,0.1-32-14.2-32.1-31.9l0-13.3c-0.1-17.7,14.2-32,31.9-32.1h0
						c17.7-0.1,32,14.2,32.1,31.9l0,13.3C792.9,139.8,778.7,154.1,761,154.2z"/>
				</defs>
				<use xlink:href="#XMLID_172_"  style="overflow:visible;fill:#E5AB60;"/>
				<clipPath id="XMLID_8_">
					<use xlink:href="#XMLID_172_"  style="overflow:visible;"/>
				</clipPath>
			</g>
			<path class="st1" d="M746.1,96.1L746.1,96.1c0-1.3-1.1-2.4-2.4-2.4l-5.8,0v0c0,1.4,1.1,2.5,2.5,2.4L746.1,96.1z"/>
			<path class="st1" d="M768.5,93.7L768.5,93.7l5.6,0c1.3,0,2.4,1.1,2.4,2.4l-1.5,0c0,0,0,0,0,0l-4.1,0
				C769.6,96.1,768.5,95,768.5,93.7z"/>
			<path class="st67" d="M756.1,115.6L756.1,115.6c-1.2,0-2.3-1-2.3-2.2l0-8.2c0-1.2,1-2.3,2.2-2.3l0,0c1.2,0,2.3,1,2.3,2.2l0,8.2
				C758.4,114.5,757.4,115.5,756.1,115.6z"/>
			<g>
				<path class="st65" d="M799.1,119.4c0-3-2.5-5.4-5.7-5.4s-5.6,2.4-5.6,5.4c0,3,2.5,5.4,5.7,5.4S799.2,122.4,799.1,119.4z"/>
				
					<ellipse transform="matrix(1 -2.654819e-003 2.654819e-003 1 -0.3142 2.107)" class="st66" cx="793.5" cy="119.4" rx="3.2" ry="3"/>
			</g>
			
				<ellipse transform="matrix(1 -3.534751e-003 3.534751e-003 1 -0.4401 2.8021)" class="st2" cx="792.5" cy="125.9" rx="1.7" ry="1.7"/>
			<g>
				<defs>
					<path id="XMLID_171_" d="M756.7,134.5L756.7,134.5c-5.2,0-9.5-4.2-9.5-9.4v0c0-0.6,0.5-1.1,1.1-1.1l16.7-0.1
						c0.6,0,1.1,0.5,1.1,1.1v0C766.1,130.2,761.9,134.5,756.7,134.5z"/>
				</defs>
				<use xlink:href="#XMLID_171_"  style="overflow:visible;fill:#6A4026;"/>
				<clipPath id="XMLID_9_">
					<use xlink:href="#XMLID_171_"  style="overflow:visible;"/>
				</clipPath>
				
					<rect x="746.6" y="123" transform="matrix(0.9999 -1.629225e-002 1.629225e-002 0.9999 -1.9387 12.3471)" class="st68" width="20.4" height="4.3"/>
				
					<ellipse transform="matrix(1 -6.725654e-003 6.725654e-003 1 -0.886 5.0923)" class="st69" cx="756.7" cy="134.3" rx="6.6" ry="3.7"/>
			</g>
		</g>
		<line class="st70" x1="774.5" y1="427.3" x2="774.5" y2="384.7"/>
		<line class="st71" x1="748.4" y1="427.3" x2="748.5" y2="381.4"/>
		<polyline class="st72" points="774.5,386.2 774.5,357.5 774.5,304.3 		"/>
		<polyline class="st73" points="748.5,386.2 748.5,356.3 748.5,302.2 		"/>
		<line class="st74" x1="748.5" y1="354.4" x2="748.5" y2="249.8"/>
		<line class="st75" x1="774.5" y1="354.4" x2="774.5" y2="251.9"/>
		<path class="st76" d="M785.4,262.1h-47.9l0-83c0-9,7.4-16.4,16.3-16.2h15.7c8.8,0.1,15.8,7.4,15.8,16.2L785.4,262.1z"/>
		<path class="st77" d="M763.7,283.8v-21.7h-25v7.8c0,7.8,5.1,14.1,12.9,14.1L763.7,283.8z"/>
		<g>
			
				<ellipse transform="matrix(0.2869 -0.958 0.958 0.2869 394.21 860.0025)" class="st78" cx="774.8" cy="165.2" rx="2.4" ry="2.4"/>
			
				<ellipse transform="matrix(0.5477 -0.8367 0.8367 0.5477 207.6777 723.4756)" class="st78" cx="773" cy="169.7" rx="2.4" ry="2.4"/>
			
				<ellipse transform="matrix(0.7761 -0.6306 0.6306 0.7761 63.3593 524.3936)" class="st78" cx="770.2" cy="173" rx="2.4" ry="2.4"/>
			
				<ellipse transform="matrix(0.9303 -0.3667 0.3667 0.9303 -10.7905 293.4394)" class="st78" cx="766.9" cy="175.1" rx="2.4" ry="2.4"/>
			
				<ellipse transform="matrix(0.9966 -8.250370e-002 8.250370e-002 0.9966 -11.9316 63.562)" class="st78" cx="763.1" cy="176.2" rx="2.4" ry="2.4"/>
			
				<ellipse transform="matrix(0.1979 -0.9802 0.9802 0.1979 436.3703 885.4714)" class="st78" cx="759.3" cy="176.1" rx="2.4" ry="2.4"/>
			
				<ellipse transform="matrix(0.462 -0.8869 0.8869 0.462 251.2992 764.1513)" class="st78" cx="755.5" cy="174.9" rx="2.4" ry="2.4"/>
			
				<ellipse transform="matrix(0.6953 -0.7187 0.7187 0.6953 105.0531 593.2337)" class="st78" cx="752.2" cy="172.7" rx="2.4" ry="2.4"/>
			
				<ellipse transform="matrix(0.8741 -0.4858 0.4858 0.8741 12.0504 385.4111)" class="st78" cx="749.4" cy="169.5" rx="2.4" ry="2.4"/>
			
				<ellipse transform="matrix(0.9759 -0.2181 0.2181 0.9759 -18.0265 167.0393)" class="st78" cx="747.6" cy="165.2" rx="2.4" ry="2.4"/>
		</g>
		<path class="st79" d="M779,178.9l-31.8-8.7c0,0,33.9-38.3,33.6-36.2"/>
		<g>
			<line class="st38" x1="768.3" y1="168.1" x2="782.5" y2="172.7"/>
		</g>
		<path class="st63" d="M776.8,187l-11.1-3.3l4.6-15.6l11.1,3.3c4.3,1.3,6.8,5.8,5.5,10.1l0,0C785.6,185.8,781.1,188.3,776.8,187z"
			/>
		<line class="st80" x1="739" y1="102.9" x2="744.4" y2="102.9"/>
		<line class="st80" x1="769.5" y1="102.9" x2="775.6" y2="102.9"/>
		<g>
			<defs>
				<path id="XMLID_170_" d="M728.5,92.9c2.8-11.5,13.2-22.9,32.1-22.9c16.7,0,29.7,12.6,32.9,22.7L728.5,92.9z"/>
			</defs>
			<use xlink:href="#XMLID_170_"  style="overflow:visible;fill:#2F2224;"/>
			<clipPath id="XMLID_10_">
				<use xlink:href="#XMLID_170_"  style="overflow:visible;"/>
			</clipPath>
		</g>
		<path class="st1" d="M727.1,113.1h2.3c0,0,0.2-17.9,7.9-23.7c7.7-5.8-5.1-0.9-5.1-0.9l-6.1,25.5"/>
		<path class="st1" d="M784.4,89.7c0,0,6.2,7.5,0.9,58c0,0,9.1-9,9.5-9.5c0.3-0.5,1.3-43.5-5.9-48.5S784.4,89.7,784.4,89.7z"/>
		<path class="st81" d="M786.9,419.4h-11.7c-6.7,0-12.2,5.5-12.2,12.2l0,0h36.1l0,0C799.2,424.9,793.7,419.4,786.9,419.4z"/>
		<path class="st82" d="M749.8,419.4h-11.7c-6.7,0-12.2,5.5-12.2,12.2l0,0H762l0,0C762,424.9,756.6,419.4,749.8,419.4z"/>
	</g>
	<g>
		<g>
			<line class="st83" x1="1029.7" y1="67.7" x2="1022.6" y2="104"/>
			<line class="st83" x1="1020.7" y1="75.8" x2="1014.5" y2="107.3"/>
			<line class="st83" x1="1012.9" y1="77.7" x2="1006.5" y2="110.2"/>
			<line class="st83" x1="1005.1" y1="79.5" x2="998.5" y2="113.1"/>
			<line class="st83" x1="998.6" y1="74.8" x2="991.5" y2="111.2"/>
			<line class="st83" x1="992.1" y1="70.1" x2="984" y2="111.7"/>
			<line class="st83" x1="985.7" y1="65.4" x2="978.2" y2="103.2"/>
			<line class="st83" x1="978.7" y1="62.7" x2="972" y2="97.5"/>
			<line class="st83" x1="972.3" y1="57.2" x2="965.6" y2="92"/>
		</g>
		<line class="st84" x1="999.9" y1="86.5" x2="999.7" y2="120.1"/>
		<g>
			<path class="st20" d="M991,97.2L991,97.2c18.4,3,35.8-9.5,38.8-27.9l2.3-13.8c3-18.4-9.5-35.8-27.9-38.8l0,0
				c-18.4-3-35.8,9.5-38.8,27.9l-2.3,13.8C960.1,76.8,972.5,94.2,991,97.2z"/>
			<line class="st83" x1="1031.7" y1="63.7" x2="1035.5" y2="42.7"/>
			
				<ellipse transform="matrix(0.1622 -0.9868 0.9868 0.1622 789.8832 1035.0527)" class="st2" cx="1004.5" cy="52.4" rx="2.6" ry="2.6"/>
			
				<ellipse transform="matrix(0.1622 -0.9868 0.9868 0.1622 767.5912 997.9548)" class="st2" cx="971.5" cy="47" rx="2.6" ry="2.6"/>
			<g>
				
					<ellipse transform="matrix(0.1622 -0.9868 0.9868 0.1622 796.5367 1071.186)" class="st20" cx="1029.1" cy="66.5" rx="6.6" ry="6.6"/>
				
					<ellipse transform="matrix(0.1622 -0.9868 0.9868 0.1622 796.5367 1071.186)" class="st85" cx="1029.1" cy="66.5" rx="3.7" ry="3.7"/>
			</g>
			<path class="st1" d="M998.9,46.1L998.9,46.1c0.3-1.9,2.1-3.2,4-2.9l8.2,1.4v0c-0.3,1.9-2.2,3.2-4.1,2.9L998.9,46.1z"/>
			<path class="st1" d="M978.8,39.9L978.8,39.9l-8-1.3c-1.9-0.3-3.7,1-4.1,2.9l2.1,0.3c0,0,0,0,0,0l5.9,0.9
				C976.7,43.1,978.5,41.8,978.8,39.9z"/>
			<path class="st85" d="M980.9,65.9L980.9,65.9c1.3,0.2,2.5-0.7,2.7-2l2.2-13.4c0.2-1.3-0.7-2.5-2-2.7l0,0c-1.3-0.2-2.5,0.7-2.7,2
				l-2.2,13.4C978.7,64.5,979.6,65.7,980.9,65.9z"/>
		</g>
		<line class="st83" x1="973.7" y1="32.8" x2="975.5" y2="23.2"/>
		<line class="st83" x1="981.6" y1="32.1" x2="983.9" y2="19"/>
		<line class="st83" x1="989.6" y1="31.8" x2="992.4" y2="16.8"/>
		<line class="st83" x1="997.1" y1="34" x2="1000.7" y2="15.3"/>
		<line class="st83" x1="1004.6" y1="37.2" x2="1008.8" y2="16"/>
		<line class="st83" x1="1011.8" y1="41" x2="1016.1" y2="20.1"/>
		<line class="st83" x1="1018.3" y1="49" x2="1022.7" y2="25.8"/>
		<line class="st83" x1="1025.1" y1="56.3" x2="1029.3" y2="33"/>
		<line class="st0" x1="1016.1" y1="415.4" x2="1016.1" y2="208.8"/>
		<line class="st86" x1="1016.1" y1="336.3" x2="1016.1" y2="208.8"/>
		<line class="st87" x1="988.7" y1="417" x2="988.7" y2="239.7"/>
		<line class="st88" x1="988.7" y1="336.3" x2="988.7" y2="239.7"/>
		<line class="st89" x1="982.6" y1="121.6" x2="907.6" y2="50.9"/>
		<path class="st90" d="M988.9,114.9l-21.3-18.7l-11.4,12.3l21.3,18.7c3,2.7,8,2.1,11.2-1.3l0,0
			C991.8,122.6,991.9,117.6,988.9,114.9z"/>
		<path id="XMLID_81_" class="st1" d="M1028.1,238.9l-51.4,0l0-116.2c0-9.7,7.9-17.6,17.6-17.4l16.8,0c9.4,0.1,17,8,17,17.4
			L1028.1,238.9z"/>
		<path class="st91" d="M1023.5,418.5l-14.5,0c-7.2,0-13.1,5.8-13.1,13.1l0,0l40.6,0l0,0C1036.5,424.4,1030.7,418.5,1023.5,418.5z"
			/>
		<path class="st92" d="M994.7,418.5l-12.5,0c-7.2,0-13.1,5.8-13.1,13.1l38.6,0l0,0C1007.8,424.4,1002,418.5,994.7,418.5z"/>
		<rect x="976.7" y="238.9" class="st93" width="27.4" height="26.2"/>
		<g>
			<line class="st94" x1="911.5" y1="46.6" x2="910.4" y2="42.3"/>
			<line class="st94" x1="910.6" y1="48.3" x2="895.7" y2="33.4"/>
			<path class="st20" d="M897,35.1l16.2,16.2l-6.5,6.5c-1.3,1.3-3.4,1.3-4.7,0l-5-5C892.1,47.9,892.1,40,897,35.1L897,35.1z"/>
		</g>
		<g>
			<g>
				<g>
					<defs>
						<path id="XMLID_80_" d="M930.3,121.3h-16.4c-1.4,0-2.6-1.2-2.6-2.6V79.3c0-1.4,1.2-2.6,2.6-2.6h16.4c1.4,0,2.6,1.2,2.6,2.6
							v39.4C932.9,120.2,931.7,121.3,930.3,121.3z"/>
					</defs>
					<use xlink:href="#XMLID_80_"  style="overflow:visible;fill:#9B9694;"/>
					<clipPath id="XMLID_11_">
						<use xlink:href="#XMLID_80_"  style="overflow:visible;"/>
					</clipPath>
				</g>
				<circle class="st2" cx="922.1" cy="79.6" r="1.1"/>
				<circle class="st95" cx="922.1" cy="87.1" r="3.5"/>
			</g>
		</g>
		<line class="st89" x1="983.9" y1="137" x2="941.2" y2="116.5"/>
		<path class="st20" d="M934.5,122.2l-9.9-1.1c-5.3-0.6-9.2-5.3-8.8-10.4l0.1-1.5c0.5-5.1,5.2-8.8,10.5-8.2l9.9,1.1
			c5.3,0.6,9.2,5.3,8.8,10.4l-0.1,1.5C944.5,119.2,939.8,122.9,934.5,122.2z"/>
		<line class="st89" x1="1022.7" y1="122.3" x2="983.9" y2="137.1"/>
		<path class="st90" d="M1020.8,113.8l-26.3,10.4l5.8,15.8l26.3-10.4c3.8-1.4,5.6-6.1,4-10.5v0
			C1029,114.7,1024.6,112.3,1020.8,113.8z"/>
	</g>
</g>
</svg>
