<svg xmlns="http://www.w3.org/2000/svg" xmlns:xlink="http://www.w3.org/1999/xlink" width="186" height="50" viewBox="0 0 186 50"><defs><style>.a{fill:#b1b9c2;}.b{fill:url(#a);}.c{fill:url(#b);}.d{fill:url(#c);}.e{fill:url(#d);}.f{opacity:0.2;}.f,.g,.h{isolation:isolate;}.g{opacity:0.12;}.h{fill:#fff;opacity:0.25;}</style><linearGradient id="a" x1="19.25" y1="44.31" x2="-7.6" y2="17.46" gradientTransform="matrix(1, 0, 0, -1, 0, 50.49)" gradientUnits="userSpaceOnUse"><stop offset="0" stop-color="#00a0ff"/><stop offset="0.01" stop-color="#00a1ff"/><stop offset="0.26" stop-color="#00beff"/><stop offset="0.51" stop-color="#00d2ff"/><stop offset="0.76" stop-color="#00dfff"/><stop offset="1" stop-color="#00e3ff"/></linearGradient><linearGradient id="b" x1="38.5" y1="26.24" x2="-0.21" y2="26.24" gradientTransform="matrix(1, 0, 0, -1, 0, 50.49)" gradientUnits="userSpaceOnUse"><stop offset="0" stop-color="#ffe000"/><stop offset="0.41" stop-color="#ffbd00"/><stop offset="0.78" stop-color="orange"/><stop offset="1" stop-color="#ff9c00"/></linearGradient><linearGradient id="c" x1="24.09" y1="22.57" x2="-12.32" y2="-13.84" gradientTransform="matrix(1, 0, 0, -1, 0, 50.49)" gradientUnits="userSpaceOnUse"><stop offset="0" stop-color="#ff3a44"/><stop offset="1" stop-color="#c31162"/></linearGradient><linearGradient id="d" x1="-3.96" y1="57.96" x2="12.3" y2="41.7" gradientTransform="matrix(1, 0, 0, -1, 0, 50.49)" gradientUnits="userSpaceOnUse"><stop offset="0" stop-color="#32a071"/><stop offset="0.07" stop-color="#2da771"/><stop offset="0.48" stop-color="#15cf74"/><stop offset="0.8" stop-color="#06e775"/><stop offset="1" stop-color="#00f076"/></linearGradient></defs><title>Download_on_the_App_Store_Badge_US-UK_135x40</title><path class="a" d="M60.24,8.64A4.33,4.33,0,0,1,59,11.84a4.65,4.65,0,0,1-3.53,1.42,4.94,4.94,0,0,1-5-5,4.94,4.94,0,0,1,5-5,5,5,0,0,1,2,.4A4,4,0,0,1,59,4.71l-0.84.84a3.24,3.24,0,0,0-2.63-1.14,3.71,3.71,0,0,0-3.73,3.83A3.77,3.77,0,0,0,58.2,11,3,3,0,0,0,59,9.06H55.52V7.91h4.65A4.07,4.07,0,0,1,60.24,8.64Z"/><path class="a" d="M67.61,4.63H63.24v3h3.94V8.82H63.24v3h4.37V13H62V3.45h5.6V4.63Z"/><path class="a" d="M72.81,13H71.58V4.63H68.9V3.45h6.6V4.63H72.81V13Z"/><path class="a" d="M80.27,13V3.45H81.5V13H80.27Z"/><path class="a" d="M87,13H85.74V4.63H83.06V3.45h6.6V4.63H87V13Z"/><path class="a" d="M102.14,11.81a5,5,0,0,1-7,0,4.91,4.91,0,0,1-1.41-3.56A4.91,4.91,0,0,1,95.1,4.69a5,5,0,0,1,7,0,4.91,4.91,0,0,1,1.42,3.55A4.91,4.91,0,0,1,102.14,11.81ZM96,11a3.69,3.69,0,0,0,5.22,0,3.76,3.76,0,0,0,1.07-2.76,3.76,3.76,0,0,0-1.07-2.76,3.69,3.69,0,0,0-5.22,0,3.76,3.76,0,0,0-1.07,2.76A3.76,3.76,0,0,0,96,11Z"/><path class="a" d="M105.29,13V3.45h1.5l4.67,7.47h0.05l-0.05-1.85V3.45h1.23V13H111.4l-4.88-7.83h-0.05l0.05,1.85v6h-1.23Z"/><path class="a" d="M93.38,27a6.81,6.81,0,1,0,6.83,6.8A6.71,6.71,0,0,0,93.38,27Zm0,10.93a3.94,3.94,0,0,1-3.84-4.12,3.85,3.85,0,1,1,7.68,0A3.94,3.94,0,0,1,93.38,38ZM78.48,27a6.81,6.81,0,1,0,6.83,6.8A6.71,6.71,0,0,0,78.48,27Zm0,10.93a3.94,3.94,0,0,1-3.84-4.12,3.85,3.85,0,1,1,7.68,0A3.94,3.94,0,0,1,78.48,38ZM60.76,29.14V32h6.91a6,6,0,0,1-1.57,3.63,7.07,7.07,0,0,1-5.34,2.11,7.68,7.68,0,0,1,0-15.36A7.36,7.36,0,0,1,66,24.47l2-2a10.07,10.07,0,0,0-7.24-2.91,10.57,10.57,0,1,0,0,21.14,9.66,9.66,0,0,0,7.37-3,9.54,9.54,0,0,0,2.5-6.75,9.39,9.39,0,0,0-.15-1.8H60.76Zm72.49,2.24A6.32,6.32,0,0,0,127.43,27a6.47,6.47,0,0,0-6.42,6.8,6.66,6.66,0,0,0,6.75,6.81,6.77,6.77,0,0,0,5.67-3l-2.32-1.55A3.89,3.89,0,0,1,127.76,38a3.46,3.46,0,0,1-3.3-2.06l9.1-3.76ZM124,33.65a3.73,3.73,0,0,1,3.56-4,2.64,2.64,0,0,1,2.53,1.44Zm-7.4,6.6h3v-20h-3v20Zm-4.9-11.68h-0.1A4.72,4.72,0,0,0,108,27a6.81,6.81,0,0,0,0,13.61,4.64,4.64,0,0,0,3.58-1.55h0.1v1c0,2.6-1.39,4-3.63,4a3.77,3.77,0,0,1-3.43-2.42L102,42.75a6.49,6.49,0,0,0,6,4c3.51,0,6.47-2.06,6.47-7.09V27.46h-2.84v1.11ZM108.25,38a3.91,3.91,0,0,1-3.79-4.1,3.94,3.94,0,0,1,3.79-4.15c2,0,3.63,1.75,3.63,4.15A3.8,3.8,0,0,1,108.25,38Zm39-17.73H140.1v20h3V32.67h4.17A6.22,6.22,0,1,0,147.26,20.24Zm0.08,9.64h-4.25V23h4.25A3.43,3.43,0,1,1,147.33,29.88ZM165.78,27a5.61,5.61,0,0,0-5.33,3.06l2.65,1.11a2.83,2.83,0,0,1,2.73-1.47c1.54,0,3.11.93,3.14,2.57v0.21a6.6,6.6,0,0,0-3.11-.77c-2.86,0-5.76,1.57-5.76,4.5,0,2.68,2.34,4.4,5,4.4a4.21,4.21,0,0,0,3.81-2H169v1.54h2.88V32.54C171.86,29,169.21,27,165.78,27Zm-0.36,11c-1,0-2.34-.49-2.34-1.7,0-1.54,1.7-2.14,3.17-2.14a5.32,5.32,0,0,1,2.73.67A3.62,3.62,0,0,1,165.42,38Zm16.93-10.52-3.42,8.67h-0.1l-3.55-8.67h-3.22l5.33,12.12-3,6.74h3.11l8.21-18.86h-3.32Zm-26.89,12.8h3v-20h-3v20Z"/><path class="b" d="M1.06,4.31A3.2,3.2,0,0,0,.32,6.56V41.94a3.2,3.2,0,0,0,.74,2.25L1.18,44.3,21,24.48V24L1.18,4.19Z"/><path class="c" d="M27.61,31.09L21,24.48V24l6.61-6.61,0.15,0.08,7.83,4.45c2.24,1.27,2.24,3.35,0,4.62L27.76,31Z"/><path class="d" d="M27.76,31L21,24.25,1.06,44.19c0.74,0.78,2,.88,3.32.1L27.76,31"/><path class="e" d="M27.76,17.49L4.39,4.21C3,3.43,1.8,3.53,1.06,4.31L21,24.25Z"/><path class="f" d="M27.61,30.86L4.39,44.05c-1.3.74-2.46,0.69-3.21,0h0l-0.12.12h0L1.18,44.3h0c0.75,0.67,1.91.72,3.21,0L27.76,31Z"/><path class="g" d="M1.06,44a3.2,3.2,0,0,1-.74-2.25v0.23a3.2,3.2,0,0,0,.74,2.25l0.12-.12Z"/><path class="g" d="M35.59,26.32l-8,4.53L27.76,31l7.83-4.45a2.81,2.81,0,0,0,1.68-2.31h0A3,3,0,0,1,35.59,26.32Z"/><path class="h" d="M4.39,4.44l31.2,17.73a3,3,0,0,1,1.68,2.08h0a2.81,2.81,0,0,0-1.68-2.31L4.39,4.21C2.15,2.94.32,4,.32,6.56V6.79C0.32,4.23,2.15,3.17,4.39,4.44Z"/></svg>