<svg xmlns="http://www.w3.org/2000/svg" width="186" height="50" viewBox="0 0 186 50"><defs><style>.a{fill:#b1b9c2;}</style></defs><title>Download_on_the_App_Store_Badge_US-UK_135x40</title><path class="a" d="M33.25,23.35a9.27,9.27,0,0,1,4.42-7.78,9.5,9.5,0,0,0-7.48-4c-3.15-.33-6.2,1.88-7.8,1.88s-4.1-1.85-6.76-1.8a10,10,0,0,0-8.38,5.11C3.6,23,6.31,32.22,9.78,37.3c1.74,2.48,3.77,5.26,6.43,5.16s3.57-1.66,6.71-1.66,4,1.66,6.73,1.6,4.55-2.5,6.22-5a20.53,20.53,0,0,0,2.85-5.8A9,9,0,0,1,33.25,23.35Z"/><path class="a" d="M28.13,8.18a9.13,9.13,0,0,0,2.09-6.54,9.3,9.3,0,0,0-6,3.11,8.69,8.69,0,0,0-2.14,6.3A7.68,7.68,0,0,0,28.13,8.18Z"/><path class="a" d="M70.87,42.1H67.24l-2-6.25H58.33l-1.9,6.25H52.9l6.85-21.29H64Zm-6.22-8.88-1.8-5.56q-0.29-.85-1.07-4H61.71q-0.31,1.36-1,4l-1.77,5.56h5.72Z"/><path class="a" d="M88.5,34.24a8.72,8.72,0,0,1-2.12,6.19,6.19,6.19,0,0,1-4.71,2,4.71,4.71,0,0,1-4.36-2.18H77.25v8.09H73.84V31.8q0-2.46-.13-5.05h3l0.19,2.43H77a6.07,6.07,0,0,1,9.71-.6A8.46,8.46,0,0,1,88.5,34.24ZM85,34.36a6.32,6.32,0,0,0-1-3.7,3.49,3.49,0,0,0-3-1.52,3.55,3.55,0,0,0-2.29.84,3.88,3.88,0,0,0-1.34,2.2,4.47,4.47,0,0,0-.16,1v2.56a4.1,4.1,0,0,0,1,2.83A3.4,3.4,0,0,0,81,39.76a3.49,3.49,0,0,0,3-1.48A6.53,6.53,0,0,0,85,34.36Z"/><path class="a" d="M106.16,34.24A8.72,8.72,0,0,1,104,40.43a6.18,6.18,0,0,1-4.71,2A4.7,4.7,0,0,1,95,40.27H94.91v8.09H91.5V31.8q0-2.46-.13-5.05h3l0.19,2.43h0.06a6.07,6.07,0,0,1,9.72-.6A8.48,8.48,0,0,1,106.16,34.24Zm-3.48.12a6.32,6.32,0,0,0-1-3.7,3.49,3.49,0,0,0-3-1.52,3.55,3.55,0,0,0-2.29.84,3.88,3.88,0,0,0-1.34,2.2,4.55,4.55,0,0,0-.16,1v2.56a4.11,4.11,0,0,0,1,2.83,3.41,3.41,0,0,0,2.67,1.15,3.49,3.49,0,0,0,3-1.48A6.53,6.53,0,0,0,102.68,34.36Z"/><path class="a" d="M125.9,36.13A5.67,5.67,0,0,1,124,40.55a8.38,8.38,0,0,1-5.8,1.86,10.15,10.15,0,0,1-5.52-1.33l0.79-2.84a9.35,9.35,0,0,0,4.93,1.36,4.66,4.66,0,0,0,3-.87,2.84,2.84,0,0,0,1.07-2.33,3,3,0,0,0-.88-2.18,8.23,8.23,0,0,0-2.94-1.65q-5.59-2.09-5.59-6.11a5.4,5.4,0,0,1,2-4.3,7.73,7.73,0,0,1,5.21-1.68,10.33,10.33,0,0,1,4.83,1l-0.85,2.78a8.38,8.38,0,0,0-4.08-1,4.12,4.12,0,0,0-2.81.88,2.53,2.53,0,0,0-.85,1.93,2.6,2.6,0,0,0,1,2.08,11,11,0,0,0,3.1,1.64,10.51,10.51,0,0,1,4,2.59A5.41,5.41,0,0,1,125.9,36.13Z"/><path class="a" d="M137.18,29.31h-3.76v7.45q0,2.84,2,2.84a6.07,6.07,0,0,0,1.52-.16L137,42a7.73,7.73,0,0,1-2.65.38,4.09,4.09,0,0,1-3.16-1.23A6.05,6.05,0,0,1,130.07,37V29.3h-2.24V26.74h2.24V23.93l3.35-1v3.82h3.76v2.56Z"/><path class="a" d="M154.15,34.3a8.42,8.42,0,0,1-2,5.81,7.22,7.22,0,0,1-5.63,2.34,6.87,6.87,0,0,1-5.38-2.24,8.16,8.16,0,0,1-2-5.65,8.34,8.34,0,0,1,2.07-5.84,7.16,7.16,0,0,1,5.57-2.28,7,7,0,0,1,5.43,2.24A8.07,8.07,0,0,1,154.15,34.3Zm-3.54.11a6.91,6.91,0,0,0-.92-3.64,3.37,3.37,0,0,0-3.06-1.84,3.42,3.42,0,0,0-3.13,1.84,7,7,0,0,0-.92,3.71,6.9,6.9,0,0,0,.92,3.64,3.49,3.49,0,0,0,6.16,0A6.93,6.93,0,0,0,150.61,34.41Z"/><path class="a" d="M165.24,29.75a5.92,5.92,0,0,0-1.08-.09A3.22,3.22,0,0,0,161.38,31a5.11,5.11,0,0,0-.85,3V42.1h-3.41l0-10.52q0-2.65-.13-4.83h3l0.12,2.94h0.09a5.25,5.25,0,0,1,1.71-2.43,4.12,4.12,0,0,1,2.47-.82,5.48,5.48,0,0,1,.85.06v3.25Z"/><path class="a" d="M180.49,33.7a8,8,0,0,1-.12,1.55H170.13a4.45,4.45,0,0,0,1.48,3.48A5.07,5.07,0,0,0,175,39.8a11.32,11.32,0,0,0,4.14-.73l0.53,2.37a12.8,12.8,0,0,1-5.15.95,7.46,7.46,0,0,1-5.61-2.1,7.76,7.76,0,0,1-2-5.64,8.8,8.8,0,0,1,1.9-5.78,6.54,6.54,0,0,1,5.37-2.46,5.72,5.72,0,0,1,5,2.46A8.3,8.3,0,0,1,180.49,33.7Zm-3.25-.88a4.63,4.63,0,0,0-.66-2.62,3,3,0,0,0-2.72-1.42,3.24,3.24,0,0,0-2.72,1.39,5.09,5.09,0,0,0-1,2.65h7.11Z"/><path class="a" d="M63.52,7.71A5.25,5.25,0,0,1,61.83,12a6.73,6.73,0,0,1-4.45,1.32,20.65,20.65,0,0,1-2.45-.12V2.87a18.1,18.1,0,0,1,2.89-.22A6.23,6.23,0,0,1,62,3.84,4.83,4.83,0,0,1,63.52,7.71Zm-1.77,0a3.82,3.82,0,0,0-1-2.81A3.82,3.82,0,0,0,58,4a7.1,7.1,0,0,0-1.35.11V11.9a8.85,8.85,0,0,0,1.13,0,4,4,0,0,0,3-1.07A4.29,4.29,0,0,0,61.75,7.76Z"/><path class="a" d="M72.9,9.35a4.14,4.14,0,0,1-1,2.86,3.55,3.55,0,0,1-2.76,1.15,3.37,3.37,0,0,1-2.65-1.1,4,4,0,0,1-1-2.78,4.1,4.1,0,0,1,1-2.87,3.52,3.52,0,0,1,2.74-1.12,3.45,3.45,0,0,1,2.67,1.1A4,4,0,0,1,72.9,9.35Zm-1.74.05a3.41,3.41,0,0,0-.45-1.79,1.66,1.66,0,0,0-1.5-.9,1.68,1.68,0,0,0-1.54.9,3.46,3.46,0,0,0-.45,1.82,3.41,3.41,0,0,0,.45,1.79,1.69,1.69,0,0,0,1.52.9,1.67,1.67,0,0,0,1.5-.92A3.39,3.39,0,0,0,71.16,9.41Z"/><path class="a" d="M85.47,5.65l-2.36,7.54H81.57l-1-3.28A24.51,24.51,0,0,1,80,7.48h0a17.84,17.84,0,0,1-.61,2.44l-1,3.28H76.76L74.54,5.65h1.72l0.85,3.59q0.31,1.27.51,2.42h0q0.19-.95.62-2.4l1.07-3.6h1.37l1,3.52q0.37,1.29.6,2.48h0a23.73,23.73,0,0,1,.51-2.48l0.92-3.52h1.65Z"/><path class="a" d="M94.16,13.19H92.48V8.87q0-2-1.52-2a1.51,1.51,0,0,0-1.21.55,2,2,0,0,0-.47,1.29v4.47H87.61V7.8q0-1-.06-2.16H89L89.1,6.82h0A2.42,2.42,0,0,1,90,5.91a2.83,2.83,0,0,1,1.52-.42,2.41,2.41,0,0,1,1.76.68,3.32,3.32,0,0,1,.87,2.5v4.52Z"/><path class="a" d="M98.78,13.19H97.11v-11h1.68v11Z"/><path class="a" d="M108.65,9.35a4.14,4.14,0,0,1-1,2.86,3.55,3.55,0,0,1-2.76,1.15,3.37,3.37,0,0,1-2.65-1.1,4,4,0,0,1-1-2.78,4.1,4.1,0,0,1,1-2.87A3.52,3.52,0,0,1,105,5.49a3.45,3.45,0,0,1,2.67,1.1A4,4,0,0,1,108.65,9.35Zm-1.74.05a3.41,3.41,0,0,0-.45-1.79,1.65,1.65,0,0,0-1.5-.9,1.68,1.68,0,0,0-1.54.9A3.46,3.46,0,0,0,103,9.44a3.41,3.41,0,0,0,.45,1.79,1.69,1.69,0,0,0,1.52.9,1.67,1.67,0,0,0,1.5-.92A3.38,3.38,0,0,0,106.91,9.41Z"/><path class="a" d="M116.77,13.19h-1.51l-0.12-.87h0a2.58,2.58,0,0,1-2.2,1,2.27,2.27,0,0,1-1.72-.68,2.14,2.14,0,0,1-.59-1.54A2.34,2.34,0,0,1,111.73,9,6,6,0,0,1,115,8.32V8.18a1.35,1.35,0,0,0-1.57-1.49,3.51,3.51,0,0,0-2,.56l-0.34-1.1a4.84,4.84,0,0,1,2.59-.65q3,0,3,3.12v2.78A11.78,11.78,0,0,0,116.77,13.19ZM115,10.6V9.43q-2.77,0-2.77,1.52a1.14,1.14,0,0,0,.32.88,1.17,1.17,0,0,0,.82.29,1.69,1.69,0,0,0,1-.35A1.43,1.43,0,0,0,115,10.6Z"/><path class="a" d="M126.3,13.19h-1.49L124.73,12h0a2.51,2.51,0,0,1-2.42,1.38A2.84,2.84,0,0,1,120,12.29a4.17,4.17,0,0,1-.9-2.78,4.37,4.37,0,0,1,1-3,3,3,0,0,1,2.33-1.06,2.26,2.26,0,0,1,2.12,1h0V2.18h1.68v9Q126.24,12.26,126.3,13.19ZM124.56,10V8.75a2.47,2.47,0,0,0,0-.53,1.91,1.91,0,0,0-.61-1,1.65,1.65,0,0,0-1.12-.41,1.72,1.72,0,0,0-1.48.75,3.2,3.2,0,0,0-.54,1.91,3,3,0,0,0,.52,1.82,1.73,1.73,0,0,0,1.47.74,1.62,1.62,0,0,0,1.32-.62A2.07,2.07,0,0,0,124.56,10Z"/><path class="a" d="M140.64,9.35a4.14,4.14,0,0,1-1,2.86,3.54,3.54,0,0,1-2.76,1.15,3.38,3.38,0,0,1-2.65-1.1,4,4,0,0,1-1-2.78,4.1,4.1,0,0,1,1-2.87A3.53,3.53,0,0,1,137,5.49a3.45,3.45,0,0,1,2.67,1.1A4,4,0,0,1,140.64,9.35Zm-1.74.05a3.41,3.41,0,0,0-.45-1.79,1.66,1.66,0,0,0-1.51-.9,1.69,1.69,0,0,0-1.54.9A3.46,3.46,0,0,0,135,9.44a3.41,3.41,0,0,0,.45,1.79,1.71,1.71,0,0,0,3,0A3.4,3.4,0,0,0,138.9,9.41Z"/><path class="a" d="M149.65,13.19H148V8.87q0-2-1.52-2a1.51,1.51,0,0,0-1.21.55,1.94,1.94,0,0,0-.47,1.29v4.47H143.1V7.8q0-1-.06-2.16h1.47l0.08,1.18h0a2.45,2.45,0,0,1,.87-0.91A2.84,2.84,0,0,1,147,5.49a2.41,2.41,0,0,1,1.75.68,3.31,3.31,0,0,1,.87,2.5v4.52Z"/><path class="a" d="M160.94,6.9h-1.85v3.66c0,0.93.33,1.4,1,1.4a3,3,0,0,0,.75-0.08l0,1.27a3.77,3.77,0,0,1-1.3.19,2,2,0,0,1-1.55-.6,3,3,0,0,1-.56-2V6.9h-1.1V5.65h1.1V4.26l1.64-.5V5.64h1.85V6.9h0Z"/><path class="a" d="M169.82,13.19h-1.68V8.9q0-2-1.52-2A1.6,1.6,0,0,0,165,8a2.11,2.11,0,0,0-.08.6v4.54h-1.68v-11h1.68V6.73h0a2.53,2.53,0,0,1,2.27-1.24,2.34,2.34,0,0,1,1.72.68,3.43,3.43,0,0,1,.85,2.53v4.48Z"/><path class="a" d="M179,9.06a4,4,0,0,1-.06.76h-5a2.2,2.2,0,0,0,.73,1.71,2.5,2.5,0,0,0,1.65.53,5.56,5.56,0,0,0,2-.36l0.26,1.16a6.31,6.31,0,0,1-2.53.47,3.66,3.66,0,0,1-2.75-1,3.8,3.8,0,0,1-1-2.77,4.32,4.32,0,0,1,.93-2.84,3.21,3.21,0,0,1,2.64-1.21,2.81,2.81,0,0,1,2.47,1.21A4,4,0,0,1,179,9.06Zm-1.6-.43A2.26,2.26,0,0,0,177,7.34a1.46,1.46,0,0,0-1.33-.7,1.59,1.59,0,0,0-1.33.68,2.54,2.54,0,0,0-.5,1.3h3.49Z"/></svg>