<svg id="Layer_1" data-name="Layer 1" xmlns="http://www.w3.org/2000/svg" width="65.2" height="65.2" viewBox="0 0 65.2 65.2"><defs><style>.cls-1{fill:#f53228;}</style></defs><title>facebook</title><path class="cls-1" d="M32.6.4A32.2,32.2,0,1,0,64.8,32.6,32.2,32.2,0,0,0,32.6.4Zm0,62.93a30.8,30.8,0,1,1,30.8-30.8A30.8,30.8,0,0,1,32.6,63.33Z"/><path class="cls-1" d="M35.12,22.87h6.16a.66.66,0,0,0,.7-.7V14.54a.7.7,0,0,0-.7-.7H35.12c-5,0-9.31,4.76-9.31,10.43v2.31h-4.9a.66.66,0,0,0-.7.7v7.63a.66.66,0,0,0,.7.7h4.9V52.13a.66.66,0,0,0,.7.7h7.14a.66.66,0,0,0,.7-.7V35.61h6.93a.66.66,0,0,0,.7-.7V27.28a.66.66,0,0,0-.7-.7H34.35V24.2C34.35,23.29,34.91,22.87,35.12,22.87Zm-1.47,5h6.93v6.23H33.65a.66.66,0,0,0-.7.7V51.36H27.21V34.91a.66.66,0,0,0-.7-.7h-4.9V28h4.9a.66.66,0,0,0,.7-.7v-3c0-4.9,3.64-9,7.91-9h5.46v6.23H35.12a2.54,2.54,0,0,0-2.17,2.73v3A.66.66,0,0,0,33.65,27.91Z"/></svg>