<?xml version="1.0" encoding="utf-8"?>
<!-- Generator: Adobe Illustrator 19.2.1, SVG Export Plug-In . SVG Version: 6.00 Build 0)  -->
<svg version="1.1" id="Layer_1" xmlns="http://www.w3.org/2000/svg" xmlns:xlink="http://www.w3.org/1999/xlink" x="0px" y="0px"
	 width="62.4px" height="23.9px" viewBox="0 0 62.4 23.9" style="enable-background:new 0 0 62.4 23.9;" xml:space="preserve">
<style type="text/css">
	.st0{fill:#8d9ba9;}
</style>
<g>
	<g>
		<path class="st0" d="M8.6,12.1c1.2,0,2.1,0.4,2.9,1.4c0.1,0.1,0.2,0.3,0.3,0.4c2-0.3,3.2-1.7,3.2-3.9c0-0.4-0.1-0.8-0.1-1.1l0,0
			c0,0-0.4-2.1,1.8-3.3c0,0-1.2-0.3-3.2,0.9c-0.1-0.1-0.3-0.2-0.3-0.2c-0.4-0.2-1.1-0.5-1.9-0.5c-2.4,0-4.1,1.5-4.1,4.2
			c0,0.8,0.2,1.5,0.5,2.1C8,12.1,8.3,12.1,8.6,12.1z M10.9,7.3c1.3,0,1.9,0.9,2.1,2.5c0.1,1.7-0.4,2.8-1.7,2.8c-1.3,0-2-1-2.1-2.6
			C9.1,8.2,9.8,7.3,10.9,7.3z"/>
		<path class="st0" d="M9.3,17.1c0.6-1.3,0.2-2-0.3-2.4c-0.2-0.2-0.7-0.3-1.2-0.4c-0.2,0.2-0.3,0.3-0.5,0.5C7.1,15,7,15.1,7,15.3
			c0,0.7,0.6,1.3,1.7,1.6C8.7,16.9,8.9,17,9.3,17.1z"/>
		<path class="st0" d="M13.6,15.8c-0.2,0-0.5-0.1-0.8-0.1c-0.1,0-0.3,0-0.4,0c0,0.1,0,0.1,0,0.2c0,0.5-0.1,1.1-0.3,1.5
			c0.2,0,0.4,0,0.5,0.1c1,0.1,1.2,0.5,1.4,1.1c0,0.1,0,0.3,0,0.4c0,1-1.3,2.6-3,3.1c-0.6,0.2-1.2,0.3-1.7,0.3
			c-0.4,0-0.7-0.1-0.8-0.4c-0.1-0.1,0-0.3,0-0.5C8.7,21,9,20.5,9.6,19.8c0.5-0.6,0.9-1,1.7-2c0.4-0.5,0.7-1.4,0.6-2.2l0,0
			c0-0.6-0.2-1.2-0.6-1.6c0,0,0,0,0,0c0,0-0.1-0.1-0.1-0.1c0,0-0.1-0.1-0.1-0.1c-0.7-0.8-1.5-1.3-2.6-1.3c-0.1,0-0.2,0-0.2,0
			c0,0-0.1,0-0.1,0c0,0-0.1,0-0.1,0c-0.2,0-0.5,0.1-0.8,0.1c-2.2,0.4-4.7,2.8-5.4,5c-0.4,1.2-0.6,2.6-0.7,3.6
			C1,20.3,0.6,19,0.9,18.1C1.1,17.2,2,16.8,2,16.8L2.4,16c0,0-1.2,0.5-1.6,1.2c-0.4,0.7-0.5,1-0.4,2c0.1,1,0.9,3.5,0.9,3.5s0,0,0,0
			c0.4-0.8,0.9-1.8,1.6-2.7c0.7-0.9,1.7-1.5,1.6-2.6c0-0.7-0.7-1.2-0.7-1.2s0.4-0.7,1.8-1.6c0.7-0.4,1.5-0.6,2.1-0.6
			c0.2,0,0.3,0,0.5,0c0.1,0,0.1,0,0.2,0c0,0,0,0,0,0c0.1,0,0.2,0,0.3,0.1c0,0,0,0,0,0c0.1,0,0.2,0.1,0.3,0.1c0,0,0,0,0,0
			c0,0,0.1,0,0.1,0.1c0,0,0,0,0,0c0,0,0.1,0,0.1,0.1c0,0,0,0,0,0c0,0,0.1,0,0.1,0.1c0.3,0.3,0.5,0.6,0.6,1c0,0.1,0,0.1,0,0.2
			c0,0,0,0,0,0c0,0.1,0,0.1,0,0.2c0,0,0,0,0,0c0,0.1,0,0.1,0,0.2c0,0,0,0,0,0c0,0.1,0,0.1,0,0.2c0,0,0,0,0,0c0,0.1,0,0.1,0,0.2
			c0,0,0,0,0,0c0,0.1,0,0.1-0.1,0.2c0,0,0,0,0,0c0,0.1,0,0.1-0.1,0.2c0,0,0,0,0,0c0,0.1-0.1,0.2-0.1,0.2c-0.2,0.5-0.6,1.1-1.1,1.7
			c-1.3,1.6-1.8,2.6-1.9,2.8c0,0,0,0,0,0c-0.2,0.4-0.3,0.7-0.2,1c0.2,0.7,1.2,1,2.4,1c0.8,0,1.6-0.1,2.2-0.2c3-0.6,5-3,5-5.2
			C16,16.8,15.1,16,13.6,15.8z"/>
	</g>
	<path class="st0" d="M17.6,7.3c0-0.1,0-0.2,0-0.3c0.5-0.5,1.9-1.1,3.6-1.2c0.4,0,0.4,0,0.8,0c1.8,0.1,2.4,1.3,2.4,3.3v1.1
		c0,1.7,0,3.6,0,4.9c0,0-0.1,1.3,0.7,1.1c0,0.3,0,0.7,0,0.9c-0.2,0.3-0.6,0.5-1.3,0.6c-0.6,0-1.2-0.5-1.4-0.9
		c-0.1,0.1-0.4,0.4-0.7,0.6c-0.5,0.3-1.1,0.3-1.8,0.3c-1.5,0-3-1-3-3.2c0-3,2.6-3.7,4.1-3.8c0.2,0,0.5,0,0.7,0c0.3,0,0.6,0,0.8,0.1
		V9.4c0-1.1-0.1-1.7-1.2-1.7c-0.8,0-1.8,0.3-2.5,0.6c-0.3,0.1-0.5,0.2-0.7,0.2c-0.2-0.2-0.3-0.7-0.4-1C17.6,7.5,17.6,7.4,17.6,7.3z
		 M22.3,13.8v-1.7c-0.1,0-0.3,0-0.5,0c-0.3,0-0.6,0-0.8,0c-1.2,0.2-2.1,0.7-2.1,2.2c0,1.2,0.5,1.7,1.3,1.7h0.2
		c0.7,0,1.5-0.3,1.9-0.7c0,0,0-0.2,0.1-0.3C22.3,14.7,22.3,14.3,22.3,13.8z"/>
	<path class="st0" d="M29.2,8.6v7.7c0,0.4,0,0.7-0.2,1c-0.3,0.2-0.6,0.2-1.9,0.2c0-1.3,0-2.8,0-4.7l0-4.1c0-0.8-0.1-1.3-0.3-1.8
		c0.1-0.1,0.4-0.3,1-0.6c0.1,0,0.1,0,0.2,0c0.4,0,0.6,0.3,0.7,0.7c0.6-0.5,1.1-0.8,1.6-0.9C30.8,6,31.2,5.9,31.7,6
		c0.6,0.1,1,0.3,1,0.6c0,0.3-0.1,1-0.4,1.4c-0.1,0-0.1,0-0.2,0c-0.2,0-0.4,0-0.6,0c-0.2,0-0.3,0-0.4,0C30.3,7.9,29.7,8.1,29.2,8.6z"
		/>
	<path class="st0" d="M42.3,16.3c0,0.3,0,0.8,0,0.9c-0.2,0.3-0.6,0.5-1.3,0.6c-0.6,0-1.2-0.5-1.4-0.8c-0.1,0.1-0.4,0.4-0.7,0.5
		c-0.5,0.3-1.1,0.4-1.8,0.3c-2.4-0.1-4.2-1.5-4.2-5.6c0-2.2,0.6-3.8,1.6-4.9c0.9-1,2-1.4,3.2-1.4c0.8,0,1.5,0.2,1.9,0.4V3.4
		c0-1.1,0-2.1,0-2.7c0.2-0.6,0.9-0.6,1.9-0.6c0.1,0.3,0.2,1.1,0.2,2.2v8.1c0,1.7,0,3.6,0,4.8C41.7,15.2,41.6,16.5,42.3,16.3z
		 M39.7,7.9c-0.4-0.3-0.9-0.5-1.5-0.5c-1.4,0-2.9,1.2-2.9,4.5c0,3.1,1.1,4.1,2.5,4.1c0.7,0,1.4-0.3,1.8-0.7c0,0,0.1-0.2,0.1-0.3
		c0-0.3,0-0.6,0-1.2V7.9z"/>
	<path class="st0" d="M51.4,15.4c0.1,0.2,0.1,0.7,0.1,1c0,0.5-0.7,1-1.4,1.2c-0.4,0.1-1.1,0.2-1.8,0.2c-1.1,0-2.3-0.2-3.3-1.2
		c-0.8-0.9-1.3-2.4-1.3-4.4c0-4.6,2-6.4,4.6-6.4c2.2,0,3.3,1.3,3.5,3.4c0,0.4,0,0.7,0,1.2c0,0.5,0,1-0.1,1.4c-0.2,0.2-1,0.5-1.7,0.6
		c-0.7,0.1-2,0.1-3.1,0.1c-0.4,0-0.7,0-1.1,0c0,2.6,1.2,3.5,2.8,3.5C49.7,16,50.6,15.8,51.4,15.4z M47.9,7.4c-1,0.1-1.9,1.2-2,3.6
		h0.9c0.9,0,1.9,0,2.4-0.1c0.2,0,0.4,0,0.6-0.1c0.1-0.2,0.1-0.5,0.1-0.8c0-0.2,0-0.4,0-0.5c-0.1-1.3-0.6-2-1.7-2
		C48,7.4,48,7.4,47.9,7.4z"/>
	<path class="st0" d="M55.9,8.6v7.5c0,0.5,0,0.8-0.3,1.1c-0.3,0.2-0.6,0.2-1.9,0.2c0-1.3,0-2.8,0-4.7V8.7c0-0.8-0.1-1.3-0.3-1.8
		c0.1-0.1,0.4-0.3,1-0.6c0.1,0,0.1,0,0.2,0c0.4,0,0.6,0.3,0.7,0.7c0.6-0.5,1.1-0.8,1.7-0.9c0.5-0.2,1-0.3,1.5-0.3
		c2.9,0,3.4,1.5,3.4,4.2v3.7c0,1.3,0,2.5,0,3.4c-0.2,0.2-0.6,0.3-2,0.3c-0.1-0.3-0.2-0.6-0.2-1v-6.4c0-1.9-0.5-2.5-1.9-2.5
		C57.1,7.6,56.4,8.1,55.9,8.6z"/>
</g>
</svg>
