<?xml version="1.0" encoding="utf-8"?>
<!-- Generator: Adobe Illustrator 19.2.1, SVG Export Plug-In . SVG Version: 6.00 Build 0)  -->
<svg version="1.1" id="Layer_1" xmlns="http://www.w3.org/2000/svg" xmlns:xlink="http://www.w3.org/1999/xlink" x="0px" y="0px"
	 width="11.1px" height="10.1px" viewBox="0 0 11.1 10.1" style="enable-background:new 0 0 11.1 10.1;" xml:space="preserve">
<style type="text/css">
	.st0{fill:#D0122C;}
</style>
<path class="st0" d="M10.3,5.4c1.2-1.3,1.1-3.3-0.1-4.5C8.9-0.3,6.9-0.3,5.6,0.8l0,0l0,0C4.2-0.3,2.2-0.3,1,1v0c0,0,0,0-0.1,0.1
	c-1.2,1.2-1.2,3.2-0.1,4.4l0,0l0.1,0.1c0,0,0,0,0,0c0,0,0,0,0,0l4.6,4.5l4.5-4.4c0,0,0,0,0.1,0C10.2,5.6,10.2,5.5,10.3,5.4
	C10.2,5.5,10.2,5.5,10.3,5.4L10.3,5.4L10.3,5.4z"/>
</svg>
