<svg id="Layer_1" data-name="Layer 1" xmlns="http://www.w3.org/2000/svg" width="65" height="65" viewBox="0 0 65 65"><defs><style>.cls-1{fill:#f53228;}</style></defs><title>youtube</title><path class="cls-1" d="M32.5.28A32.22,32.22,0,1,0,64.72,32.5,32.25,32.25,0,0,0,32.5.28Zm0,63A30.82,30.82,0,1,1,63.32,32.5,30.85,30.85,0,0,1,32.5,63.32Z"/><path class="cls-1" d="M49.83,24.85c-.31-2.68-1-3.52-1.55-4-.81-.63-2.08-.83-3.87-1-2.59-.18-7-.28-11.77-.28s-9.18.1-11.77.28c-1.79.12-3.06.33-3.87,1-.56.44-1.24,1.28-1.56,4a92.86,92.86,0,0,0,0,15.29c.32,2.68,1,3.52,1.55,4,.81.63,2.08.84,3.87,1,2.61.18,7,.28,11.77.28s9.16-.1,11.77-.28c1.79-.12,3.06-.32,3.87-1,.56-.44,1.24-1.29,1.55-4A92.42,92.42,0,0,0,49.83,24.85ZM48.43,40c-.19,1.62-.54,2.64-1,3a6.88,6.88,0,0,1-3.1.66c-2.58.17-6.94.28-11.68.28s-9.1-.1-11.67-.28a6.89,6.89,0,0,1-3.1-.66c-.49-.38-.84-1.4-1-3a90.91,90.91,0,0,1,0-15c.19-1.62.54-2.64,1-3a6.92,6.92,0,0,1,3.1-.66c2.56-.17,6.93-.28,11.67-.28s9.11.1,11.67.28a6.93,6.93,0,0,1,3.1.66c.49.39.84,1.4,1,3A90.22,90.22,0,0,1,48.43,40Z"/><path class="cls-1" d="M39,31.87,28.9,26.59a.7.7,0,0,0-1,.62V37.78a.7.7,0,0,0,1,.62L39,33.12a.7.7,0,0,0,0-1.24Zm-9.76,4.75V28.36L37.2,32.5Z"/></svg>